<svg width="72" height="72" viewBox="0 0 72 72" fill="none" xmlns="http://www.w3.org/2000/svg" xmlns:xlink="http://www.w3.org/1999/xlink">
<path d="M44.302,10.931C42.182,9.781 39.778,9.098 37.233,9.01C36.956,9 36.637,9 36,9C35.362,9 35.043,9 34.767,9.01C27.039,9.277 20.609,15.033 19.489,22.684C19.449,22.958 19.414,23.275 19.343,23.908L18.588,30.707C18.387,32.521 18.286,33.427 18.085,34.309C17.844,35.371 17.495,36.406 17.043,37.397C16.668,38.22 16.199,39.002 15.26,40.567L12.635,44.942C11.023,47.628 10.217,48.971 10.792,49.985C11.366,51 12.932,51 16.065,51L55.935,51C59.067,51 60.633,51 61.208,49.985C61.782,48.971 60.977,47.628 59.365,44.942L56.74,40.567C55.801,39.002 55.332,38.22 54.957,37.397C54.505,36.406 54.156,35.371 53.914,34.309C53.714,33.427 53.613,32.521 53.412,30.707L53.331,29.982C47.015,29.635 42,24.403 42,18C42,15.357 42.854,12.914 44.302,10.931ZM48.96,14.743C48.353,15.681 48,16.799 48,18C48,20.849 49.986,23.235 52.65,23.847C52.584,23.254 52.549,22.949 52.511,22.684C52.07,19.669 50.804,16.949 48.96,14.743Z" clip-rule="evenodd" fill-rule="evenodd" fill="#3F217B"/>
<path d="M45,51C45,52.182 44.767,53.352 44.315,54.444C43.863,55.536 43.2,56.528 42.364,57.364C41.528,58.2 40.536,58.863 39.444,59.315C38.352,59.767 37.182,60 36,60C34.818,60 33.648,59.767 32.556,59.315C31.464,58.863 30.472,58.2 29.636,57.364C28.8,56.528 28.137,55.536 27.685,54.444C27.233,53.352 27,52.182 27,51L36,51L45,51Z" transform="rotate(360 36 51)" fill="#3F217B"/>
<circle cx="54" cy="18" r="6" fill="#3F217B" stroke="#3F217B" stroke-width="1" stroke-miterlimit="3.999327"/>
</svg>
