<svg width="48" height="48" viewBox="0 0 48 48" fill="none" xmlns="http://www.w3.org/2000/svg" xmlns:xlink="http://www.w3.org/1999/xlink">
<path d="M28.911,4.947C27.389,4.335 25.73,4 24,4C17.288,4 11.649,9.047 10.908,15.718L10.404,20.25L10.392,20.359C10.167,22.325 9.526,24.221 8.514,25.922L8.458,26.015L7.302,27.942L7.254,28.023C6.771,28.828 6.333,29.557 6.042,30.176C5.745,30.805 5.429,31.657 5.581,32.623C5.732,33.579 6.223,34.447 6.965,35.067C7.715,35.695 8.609,35.862 9.301,35.932C9.981,36 10.832,36 11.771,36L11.864,36L36.135,36L36.229,36C37.168,36 38.019,36 38.699,35.932C39.391,35.862 40.285,35.695 41.035,35.067C41.776,34.447 42.268,33.579 42.419,32.623C42.571,31.657 42.254,30.805 41.958,30.176C41.667,29.557 41.229,28.828 40.746,28.023L40.698,27.942L39.542,26.015L39.486,25.922C38.728,24.649 38.179,23.267 37.856,21.828C37.255,21.941 36.634,22 36,22C35.232,22 34.484,21.913 33.766,21.75C34.135,23.943 34.908,26.052 36.048,27.968L36.112,28.073L37.268,30C37.815,30.912 38.144,31.466 38.339,31.88C38.35,31.903 38.36,31.924 38.369,31.944C38.347,31.947 38.324,31.949 38.299,31.952C37.843,31.998 37.199,32 36.135,32L11.864,32C10.801,32 10.156,31.998 9.701,31.952C9.676,31.949 9.653,31.947 9.631,31.944C9.64,31.924 9.65,31.903 9.66,31.88C9.856,31.466 10.185,30.912 10.732,30L11.888,28.073L11.952,27.968C13.253,25.781 14.076,23.343 14.366,20.815L14.38,20.692L14.883,16.16C15.4,11.514 19.326,8 24,8C24.926,8 25.823,8.138 26.669,8.395C27.173,7.092 27.942,5.92 28.911,4.947ZM33.964,8.556C32.788,9.253 32,10.534 32,12C32,12.29 32.031,12.573 32.089,12.845C32.33,13.295 32.535,13.768 32.699,14.26C33.42,15.311 34.63,16 36,16C36.384,16 36.755,15.946 37.106,15.845L37.092,15.718C36.788,12.977 35.657,10.511 33.964,8.556Z" clip-rule="evenodd" fill-rule="evenodd" fill="#33363F"/>
<path d="M27.827,31.022C28.021,32.11 29.06,32.834 30.147,32.639C31.235,32.445 31.959,31.406 31.764,30.319L27.827,31.022ZM27.653,25.86L26.143,27.172L27.653,25.86ZM24,24L24,26L24,24ZM20.347,25.86L21.857,27.172L20.347,25.86ZM16.236,30.319C16.041,31.406 16.765,32.445 17.853,32.639C18.94,32.834 19.979,32.11 20.173,31.022L16.236,30.319ZM31.764,30.319C31.373,28.127 30.494,26.08 29.162,24.548L26.143,27.172C26.907,28.051 27.535,29.387 27.827,31.022L31.764,30.319ZM29.162,24.548C27.822,23.005 26.021,22 24,22L24,26C24.621,26 25.388,26.303 26.143,27.172L29.162,24.548ZM24,22C21.979,22 20.178,23.005 18.838,24.548L21.857,27.172C22.612,26.303 23.379,26 24,26L24,22ZM18.838,24.548C17.506,26.08 16.627,28.127 16.236,30.319L20.173,31.022C20.465,29.387 21.093,28.051 21.857,27.172L18.838,24.548Z" transform="rotate(360 24 33)" fill="#33363F"/>
<circle cx="36" cy="12" r="4" fill="#33363F" stroke="#33363F" stroke-width="1" stroke-miterlimit="3.999327"/>
</svg>
