<svg width="60" height="60" viewBox="0 0 60 60" fill="none" xmlns="http://www.w3.org/2000/svg" xmlns:xlink="http://www.w3.org/1999/xlink">
<path d="M35.907,8.808C34.107,7.967 32.103,7.5 30,7.5C22.884,7.5 16.905,12.851 16.12,19.924L15.49,25.589C15.386,26.525 15.334,26.992 15.256,27.452C14.974,29.102 14.436,30.699 13.659,32.182C13.443,32.595 13.201,32.998 12.717,33.806L11.135,36.442C9.523,39.128 8.717,40.471 9.292,41.485C9.866,42.5 11.432,42.5 14.565,42.5L45.435,42.5C48.567,42.5 50.133,42.5 50.708,41.485C51.282,40.471 50.477,39.128 48.865,36.442L47.283,33.806C46.799,32.998 46.557,32.595 46.341,32.182C45.564,30.699 45.025,29.102 44.744,27.452C44.678,27.063 44.63,26.669 44.555,25.991C38.686,25.757 34,20.926 34,15C34,12.704 34.703,10.572 35.907,8.808ZM40.685,12.472C40.25,13.214 40,14.078 40,15C40,17.374 41.655,19.362 43.875,19.873C43.551,17.053 42.402,14.51 40.685,12.472Z" clip-rule="evenodd" fill-rule="evenodd" fill="#3F217B"/>
<path d="M37.5,42.5C37.5,43.485 37.306,44.46 36.929,45.37C36.552,46.28 36,47.107 35.303,47.803C34.607,48.5 33.78,49.052 32.87,49.429C31.96,49.806 30.985,50 30,50C29.015,50 28.04,49.806 27.13,49.429C26.22,49.052 25.393,48.5 24.697,47.803C24,47.107 23.448,46.28 23.071,45.37C22.694,44.46 22.5,43.485 22.5,42.5L30,42.5L37.5,42.5Z" transform="rotate(360 30 42.5)" fill="#3F217B"/>
<circle cx="45" cy="15" r="5" fill="#3F217B" stroke="#3F217B" stroke-width="1" stroke-miterlimit="3.999327"/>
</svg>
