<svg width="100" height="54" viewBox="0 0 100 54" fill="none" xmlns="http://www.w3.org/2000/svg" xmlns:xlink="http://www.w3.org/1999/xlink">
<path d="M70.093,0.617C69.716,0.223 69.197,0 68.652,0L55.785,0L47.956,7.048C35.009,9.956 25.721,18.51 25.257,18.947L24.852,19.324C24.133,19.673 21.863,20.505 14.925,21.873C5.084,23.816 3.206,26.959 2.852,28.175C2.066,28.763 0.794,30.165 0.592,31.815C0.43,33.131 0.063,33.669 0.063,33.668L-0.106,33.887L-0.106,43.174L-0.087,43.343C0.446,45.809 2.995,47.114 7.284,47.114C8.652,47.114 9.678,46.974 9.638,46.974C9.674,46.972 9.883,46.968 10.245,46.961C10.481,46.956 10.782,46.95 11.143,46.943C11.049,46.683 10.964,46.42 10.89,46.151C10.819,45.892 10.754,45.63 10.704,45.363C10.583,44.733 10.515,44.084 10.515,43.419C10.515,37.712 15.145,33.069 20.837,33.069C26.529,33.069 31.159,37.712 31.159,43.419C31.159,43.935 31.109,44.436 31.037,44.932C30.997,45.201 30.952,45.468 30.891,45.729C30.829,46 30.764,46.268 30.682,46.53C43.572,46.253 59.974,45.888 72.677,45.568C72.621,45.307 72.585,45.042 72.549,44.774C72.514,44.51 72.493,44.246 72.48,43.979C72.477,43.916 72.472,43.854 72.468,43.792C72.46,43.669 72.452,43.545 72.452,43.419C72.452,37.712 77.083,33.069 82.774,33.069C88.385,33.069 92.957,37.584 93.084,43.183C93.084,43.221 93.087,43.26 93.091,43.299L93.091,43.299L93.091,43.3C93.094,43.339 93.097,43.379 93.097,43.419C93.097,43.57 93.086,43.718 93.076,43.867L93.076,43.867C93.072,43.916 93.069,43.965 93.066,44.014C93.05,44.297 93.022,44.579 92.985,44.856C95.41,44.454 97.234,43.173 98.29,41.1C100.097,37.556 99.176,32.758 98.528,31.739C98.18,31.191 98.006,29.058 97.852,27.166L97.849,27.132L97.846,27.093L97.846,27.093C97.707,25.415 97.55,23.521 97.247,21.885C97.035,20.732 96.568,19.197 94.989,19.197C94.831,19.197 94.672,19.213 94.516,19.229L94.46,19.234C94.379,19.243 94.29,19.252 94.161,19.254C94.158,19.254 94.106,19.204 94.041,19.015C93.578,17.684 91.633,16.028 89.139,14.003C88.525,13.506 87.79,12.907 87.477,12.599C87.592,11.801 87.575,10.821 87.021,10.146C86.763,9.831 86.279,9.455 85.445,9.455C85.323,9.455 85.192,9.462 84.902,9.488C84.3,9.488 83.094,9.24 81.424,8.894L81.413,8.892C80.277,8.658 78.885,8.372 77.23,8.072L70.093,0.617ZM39.118,20.555C39.172,20.545 39.226,20.535 39.287,20.533C42.223,20.423 42.721,23.087 42.721,23.087L57.095,22.498L57.095,10.83C53.704,11.015 50.975,11.325 49.479,11.81C46.192,12.877 42.369,15.006 38.996,17.15L38.996,20.573C39.038,20.569 39.078,20.562 39.118,20.555ZM77.455,19.475C76.953,20.349 76.04,20.904 75.036,20.946L63.215,21.43L62.156,10.836C67.041,10.985 71.122,11.169 73.189,11.281C74.146,11.332 75.009,11.885 75.454,12.735L77.506,16.638C77.976,17.531 77.956,18.603 77.455,19.475Z" clip-rule="evenodd" fill-rule="evenodd" fill="#242E42"/>
<path d="M12.826,46.905C14.171,50.006 17.249,52.175 20.836,52.175C24.552,52.175 27.717,49.844 28.979,46.566C29.079,46.305 29.168,46.037 29.244,45.764C29.317,45.503 29.378,45.235 29.427,44.964C29.516,44.462 29.572,43.946 29.572,43.418C29.572,38.58 25.662,34.66 20.837,34.66C16.013,34.66 12.103,38.58 12.103,43.418C12.103,44.074 12.18,44.713 12.318,45.328C12.376,45.596 12.445,45.859 12.53,46.115C12.616,46.386 12.715,46.647 12.826,46.905Z" fill="#242E42"/>
<path d="M74.301,45.525C75.244,49.341 78.674,52.175 82.772,52.175C87.055,52.175 90.611,49.079 91.356,45.001C91.404,44.736 91.441,44.47 91.467,44.198C91.49,43.94 91.506,43.682 91.506,43.418C91.506,43.411 91.506,43.405 91.506,43.397C91.497,38.571 87.589,34.66 82.772,34.66C77.948,34.66 74.037,38.58 74.037,43.418C74.037,43.593 74.054,43.764 74.064,43.938C74.079,44.207 74.106,44.471 74.146,44.733C74.186,45.001 74.239,45.265 74.301,45.525Z" fill="#242E42"/>
</svg>
