<svg width="100" height="48" viewBox="0 0 100 48" fill="none" xmlns="http://www.w3.org/2000/svg" xmlns:xlink="http://www.w3.org/1999/xlink">
<path d="M97.849,21.132C97.709,19.444 97.553,17.534 97.247,15.885C97.035,14.732 96.568,13.197 94.989,13.197C94.831,13.197 94.672,13.213 94.516,13.229C94.418,13.238 94.321,13.252 94.161,13.255C94.158,13.255 94.106,13.205 94.041,13.015C93.578,11.684 91.633,10.028 89.139,8.003C88.525,7.506 87.79,6.907 87.477,6.599C87.592,5.801 87.575,4.821 87.021,4.146C86.763,3.831 86.279,3.455 85.445,3.455C85.323,3.455 85.192,3.463 84.902,3.488C84.3,3.488 83.094,3.24 81.424,2.894C77.117,2.008 69.1,0.357 57.08,0.097C39.578,-0.251 25.824,12.413 25.257,12.947L24.852,13.324C24.133,13.673 21.863,14.506 14.925,15.873C5.084,17.816 3.206,20.96 2.852,22.175C2.066,22.763 0.794,24.166 0.592,25.815C0.43,27.131 0.063,27.669 0.063,27.668L-0.106,27.887L-0.106,37.174L-0.087,37.343C0.446,39.809 2.995,41.114 7.284,41.114C8.652,41.114 9.678,40.974 9.638,40.974C9.698,40.971 10.227,40.962 11.143,40.943C11.049,40.683 10.964,40.42 10.89,40.151C10.819,39.892 10.754,39.63 10.704,39.363C10.583,38.733 10.515,38.085 10.515,37.419C10.515,31.712 15.145,27.069 20.837,27.069C26.529,27.069 31.159,31.712 31.159,37.419C31.159,37.935 31.109,38.436 31.037,38.932C30.997,39.201 30.952,39.468 30.891,39.73C30.829,40 30.764,40.268 30.682,40.53C43.572,40.254 59.974,39.888 72.677,39.568C72.621,39.307 72.585,39.042 72.549,38.775C72.514,38.51 72.493,38.246 72.48,37.979C72.47,37.792 72.452,37.609 72.452,37.419C72.452,31.712 77.083,27.069 82.774,27.069C88.385,27.069 92.957,31.585 93.084,37.183C93.084,37.26 93.097,37.339 93.097,37.419C93.097,37.62 93.078,37.815 93.066,38.015C93.05,38.297 93.022,38.579 92.985,38.856C95.41,38.454 97.234,37.173 98.29,35.1C100.097,31.557 99.176,26.758 98.528,25.739C98.177,25.188 98.004,23.033 97.849,21.132Z" fill="#242E42"/>
<path d="M12.826,40.906C14.171,44.006 17.249,46.175 20.836,46.175C24.552,46.175 27.717,43.845 28.979,40.567C29.079,40.305 29.168,40.038 29.244,39.764C29.317,39.503 29.378,39.236 29.427,38.965C29.516,38.463 29.572,37.946 29.572,37.418C29.572,32.581 25.662,28.66 20.837,28.66C16.013,28.66 12.103,32.581 12.103,37.418C12.103,38.074 12.18,38.713 12.318,39.329C12.376,39.596 12.445,39.859 12.53,40.116C12.616,40.387 12.715,40.648 12.826,40.906Z" fill="#242E42"/>
<path d="M74.301,39.525C75.244,43.341 78.674,46.175 82.772,46.175C87.055,46.175 90.611,43.079 91.356,39.001C91.404,38.736 91.441,38.47 91.467,38.198C91.49,37.94 91.506,37.682 91.506,37.418C91.506,37.411 91.506,37.405 91.506,37.397C91.497,32.571 87.589,28.66 82.772,28.66C77.948,28.66 74.037,32.58 74.037,37.418C74.037,37.593 74.054,37.764 74.064,37.938C74.079,38.207 74.106,38.471 74.146,38.733C74.186,39.001 74.239,39.265 74.301,39.525Z" fill="#242E42"/>
</svg>
