<svg width="100" height="46" viewBox="0 0 100 46" fill="none" xmlns="http://www.w3.org/2000/svg" xmlns:xlink="http://www.w3.org/1999/xlink">
<path d="M79.504,35.794C79.504,36.153 79.533,36.504 79.578,36.853C80.098,41.002 83.623,44.214 87.903,44.214C92.298,44.214 95.901,40.825 96.265,36.514C96.285,36.276 96.302,36.036 96.302,35.794C96.302,31.144 92.541,27.373 87.903,27.373C83.264,27.374 79.504,31.144 79.504,35.794Z" fill="#242E42"/>
<path d="M10.065,35.794C10.065,36.153 10.094,36.504 10.138,36.853C10.658,41.002 14.184,44.214 18.463,44.214C22.859,44.214 26.462,40.825 26.826,36.514C26.847,36.276 26.863,36.036 26.863,35.794C26.863,31.144 23.103,27.373 18.464,27.373C13.826,27.373 10.065,31.144 10.065,35.794Z" fill="#242E42"/>
<path d="M1.498,37.732L8.23,37.627C8.219,37.565 8.208,37.504 8.196,37.442C8.176,37.332 8.156,37.222 8.141,37.11C8.08,36.633 8.051,36.205 8.051,35.796C8.051,30.039 12.722,25.357 18.462,25.357C24.205,25.357 28.876,30.041 28.876,35.796C28.876,36.096 28.857,36.39 28.833,36.687C28.819,36.848 28.795,37.006 28.771,37.164L28.75,37.306L77.523,36.538C77.502,36.282 77.49,36.034 77.49,35.797C77.49,30.04 82.16,25.358 87.902,25.358C93.132,25.358 97.464,29.249 98.194,34.294C98.775,33.015 99.337,31.263 99.118,29.55C98.875,27.653 97.813,25.787 96.936,24.246C96.306,23.141 95.772,22.203 95.702,21.538C95.632,20.868 95.716,20.249 95.804,19.589C95.927,18.68 96.059,17.692 95.818,16.386C95.401,14.131 91.496,6.688 87.539,4.162C84.665,2.327 82.594,1.078 73.865,0.576C61.566,-0.131 53.126,0.675 45.715,2.934C41.308,4.278 26.226,12.146 21.653,14.685C17.325,17.088 15.059,17.868 12.413,18.777L12.413,18.777C11.749,19.006 11.062,19.242 10.312,19.514C5.991,21.083 3.245,24.526 2.162,27.128C1.079,29.73 0.29,32.971 1.498,37.732ZM70.678,14.622L69.385,3.624C76.545,3.75 83.976,4.315 84.628,6.831C85.015,8.322 83.057,11.881 80.712,12.928C78.901,13.737 76.092,14.043 70.678,14.622ZM36.554,10.598L35.736,12.997C35.736,12.997 37.247,14.891 36.051,17.354C36.051,17.354 50.913,16.436 63.505,15.315L64.884,3.587L63.187,3.587C51.179,3.587 46.239,5.383 36.554,10.598Z" clip-rule="evenodd" fill-rule="evenodd" fill="#242E42"/>
</svg>
