<svg width="40" height="26" viewBox="0 0 40 26" fill="none" xmlns="http://www.w3.org/2000/svg" xmlns:xlink="http://www.w3.org/1999/xlink">
<path d="M37.608,1L35.275,1C33.986,1 32.941,2.007 32.941,3.25L32.941,22.75C32.941,23.993 33.986,25 35.275,25L37.608,25C38.896,25 39.941,23.993 39.941,22.75L39.941,3.25C39.941,2.007 38.896,1 37.608,1ZM24.294,6.25L26.627,6.25C27.916,6.25 28.961,7.258 28.961,8.5L28.961,22.75C28.961,23.993 27.916,25 26.627,25L24.294,25C23.005,25 21.961,23.993 21.961,22.75L21.961,8.5C21.961,7.258 23.005,6.25 24.294,6.25ZM15.647,11.5L13.314,11.5C12.025,11.5 10.98,12.507 10.98,13.75L10.98,22.75C10.98,23.992 12.025,25 13.314,25L15.647,25C16.936,25 17.98,23.992 17.98,22.75L17.98,13.75C17.98,12.507 16.936,11.5 15.647,11.5ZM4.667,16L2.333,16C1.045,16 0,17.007 0,18.25L0,22.75C0,23.992 1.045,25 2.333,25L4.667,25C5.955,25 7,23.992 7,22.75L7,18.25C7,17.007 5.955,16 4.667,16Z" clip-rule="evenodd" fill-rule="evenodd" fill="#000000"/>
</svg>
