<svg width="48" height="48" viewBox="0 0 48 48" fill="none" xmlns="http://www.w3.org/2000/svg" xmlns:xlink="http://www.w3.org/1999/xlink">
<path d="M0,24C0,10.746 10.746,0 24,0C37.254,0 48,10.746 48,24C48,37.254 37.254,48 24,48C10.746,48 0,37.254 0,24ZM21.407,35.1L36.311,15.975C36.375,15.879 36.429,15.761 36.418,15.621C36.418,15.482 36.364,15.354 36.279,15.246L33,12.664C32.893,12.579 32.764,12.525 32.625,12.525C32.486,12.525 32.357,12.589 32.25,12.675L20.325,27.996C20.325,27.996 15.632,23.486 15.504,23.357C15.486,23.34 15.468,23.32 15.449,23.3C15.327,23.172 15.167,23.004 14.936,23.004C14.721,23.004 14.604,23.13 14.49,23.253C14.467,23.278 14.445,23.302 14.421,23.325C14.314,23.432 12.643,25.189 11.818,26.057C11.775,26.111 11.743,26.143 11.7,26.186C11.636,26.282 11.582,26.4 11.582,26.529C11.582,26.657 11.636,26.775 11.7,26.871L11.861,27.032C11.861,27.032 20.175,35.025 20.314,35.164C20.32,35.17 20.325,35.175 20.331,35.181C20.466,35.317 20.624,35.475 20.861,35.475C21.058,35.475 21.226,35.294 21.344,35.166C21.367,35.142 21.388,35.119 21.407,35.1Z" clip-rule="evenodd" fill-rule="evenodd" fill="#605AB0"/>
</svg>
