<svg width="48" height="48" viewBox="0 0 48 48" fill="none" xmlns="http://www.w3.org/2000/svg" xmlns:xlink="http://www.w3.org/1999/xlink">
<path d="M24.788,8.338L36.617,13.407C37.436,13.758 37.924,14.609 37.813,15.493L36.587,25.301C36.21,28.32 34.7,31.084 32.362,33.031L25.28,38.933C24.539,39.551 23.461,39.551 22.72,38.933L15.638,33.031C13.3,31.084 11.79,28.32 11.413,25.301L10.187,15.493C10.076,14.609 10.564,13.758 11.383,13.407L23.212,8.338C23.715,8.122 24.285,8.122 24.788,8.338Z" stroke="#33363F" stroke-width="2" stroke-miterlimit="3.999327" stroke-linecap="round"/>
<path d="M23.586,29.586C22.805,30.367 22.805,31.633 23.586,32.414C24.367,33.195 25.633,33.195 26.414,32.414L23.586,29.586ZM20.109,15.336C19.19,14.723 17.949,14.972 17.336,15.891C16.723,16.81 16.972,18.051 17.891,18.664L20.109,15.336ZM29.985,24.323L28.876,25.987L29.985,24.323ZM26.414,32.414L31.552,27.277L28.723,24.448L23.586,29.586L26.414,32.414ZM31.094,22.659L20.109,15.336L17.891,18.664L28.876,25.987L31.094,22.659ZM31.552,27.277C32.89,25.938 32.67,23.709 31.094,22.659L28.876,25.987C28.351,25.637 28.277,24.895 28.723,24.448L31.552,27.277Z" transform="rotate(180 25 24)" fill="#33363F"/>
</svg>
