<svg width="44" height="32" viewBox="0 0 44 32" fill="none" xmlns="http://www.w3.org/2000/svg" xmlns:xlink="http://www.w3.org/1999/xlink">
<path d="M18.857,0L18.857,2.133L44,2.133L44,0L18.857,0ZM18.857,4.267L18.857,6.4L44,6.4L44,4.267L18.857,4.267ZM18.857,8.533L18.857,10.667L44,10.667L44,8.533L18.857,8.533ZM18.857,12.8L18.857,14.933L44,14.933L44,12.8L18.857,12.8ZM0,17.067L0,19.2L44,19.2L44,17.067L0,17.067ZM0,21.333L0,23.467L44,23.467L44,21.333L0,21.333ZM0,25.6L0,27.733L44,27.733L44,25.6L0,25.6ZM0,29.867L0,32L44,32L44,29.867L0,29.867Z" clip-rule="evenodd" fill-rule="evenodd" fill="#F93939"/>
<path d="M2.095,2.133L2.095,4.267L4.19,4.267L4.19,2.133L2.095,2.133ZM6.286,2.133L6.286,4.267L8.381,4.267L8.381,2.133L6.286,2.133ZM10.476,2.133L10.476,4.267L12.571,4.267L12.571,2.133L10.476,2.133ZM14.667,2.133L14.667,4.267L16.762,4.267L16.762,2.133L14.667,2.133ZM12.571,4.267L12.571,6.4L14.667,6.4L14.667,4.267L12.571,4.267ZM8.381,4.267L8.381,6.4L10.476,6.4L10.476,4.267L8.381,4.267ZM4.19,4.267L4.19,6.4L6.286,6.4L6.286,4.267L4.19,4.267ZM2.095,6.4L2.095,8.533L4.19,8.533L4.19,6.4L2.095,6.4ZM6.286,6.4L6.286,8.533L8.381,8.533L8.381,6.4L6.286,6.4ZM10.476,6.4L10.476,8.533L12.571,8.533L12.571,6.4L10.476,6.4ZM14.667,6.4L14.667,8.533L16.762,8.533L16.762,6.4L14.667,6.4ZM2.095,10.667L2.095,12.8L4.19,12.8L4.19,10.667L2.095,10.667ZM6.286,10.667L6.286,12.8L8.381,12.8L8.381,10.667L6.286,10.667ZM10.476,10.667L10.476,12.8L12.571,12.8L12.571,10.667L10.476,10.667ZM14.667,10.667L14.667,12.8L16.762,12.8L16.762,10.667L14.667,10.667ZM12.571,8.533L12.571,10.667L14.667,10.667L14.667,8.533L12.571,8.533ZM8.381,8.533L8.381,10.667L10.476,10.667L10.476,8.533L8.381,8.533ZM4.19,8.533L4.19,10.667L6.286,10.667L6.286,8.533L4.19,8.533Z" clip-rule="evenodd" fill-rule="evenodd" fill="#FFFFFF"/>
</svg>
