<svg width="42" height="148" viewBox="0 0 42 148" fill="none" xmlns="http://www.w3.org/2000/svg" xmlns:xlink="http://www.w3.org/1999/xlink">
<path d="M23,41C23,39.895 22.105,39 21,39C19.895,39 19,39.895 19,41L23,41ZM19,144.005C19,145.109 19.895,146.005 21,146.005C22.105,146.005 23,145.109 23,144.005L19,144.005ZM19,45.292C19,46.396 19.895,47.292 21,47.292C22.105,47.292 23,46.396 23,45.292L19,45.292ZM23,53.876C23,52.771 22.105,51.876 21,51.876C19.895,51.876 19,52.771 19,53.876L23,53.876ZM19,62.459C19,63.564 19.895,64.459 21,64.459C22.105,64.459 23,63.564 23,62.459L19,62.459ZM23,71.043C23,69.939 22.105,69.043 21,69.043C19.895,69.043 19,69.939 19,71.043L23,71.043ZM19,79.627C19,80.731 19.895,81.627 21,81.627C22.105,81.627 23,80.731 23,79.627L19,79.627ZM23,88.211C23,87.106 22.105,86.211 21,86.211C19.895,86.211 19,87.106 19,88.211L23,88.211ZM19,96.794C19,97.899 19.895,98.794 21,98.794C22.105,98.794 23,97.899 23,96.794L19,96.794ZM23,105.378C23,104.273 22.105,103.378 21,103.378C19.895,103.378 19,104.273 19,105.378L23,105.378ZM19,113.962C19,115.066 19.895,115.962 21,115.962C22.105,115.962 23,115.066 23,113.962L19,113.962ZM23,122.546C23,121.441 22.105,120.546 21,120.546C19.895,120.546 19,121.441 19,122.546L23,122.546ZM19,131.129C19,132.234 19.895,133.129 21,133.129C22.105,133.129 23,132.234 23,131.129L19,131.129ZM23,139.713C23,138.608 22.105,137.713 21,137.713C19.895,137.713 19,138.608 19,139.713L23,139.713ZM19,41L19,45.292L23,45.292L23,41L19,41ZM19,53.876L19,62.459L23,62.459L23,53.876L19,53.876ZM19,71.043L19,79.627L23,79.627L23,71.043L19,71.043ZM19,88.211L19,96.794L23,96.794L23,88.211L19,88.211ZM19,105.378L19,113.962L23,113.962L23,105.378L19,105.378ZM19,122.546L19,131.129L23,131.129L23,122.546L19,122.546ZM19,139.713L19,144.005L23,144.005L23,139.713L19,139.713Z" fill="#C8C7CC"/>
<path d="M21,42C32.598,42 42,32.598 42,21C42,9.402 32.598,0 21,0C9.402,0 0,9.402 0,21C0,32.598 9.402,42 21,42Z" clip-rule="evenodd" fill-rule="evenodd" fill="#FFFFFF" stroke="#222375" stroke-width="2" stroke-miterlimit="3.999327"/>
<path d="M21,31.5C26.799,31.5 31.5,26.799 31.5,21C31.5,15.201 26.799,10.5 21,10.5C15.201,10.5 10.5,15.201 10.5,21C10.5,26.799 15.201,31.5 21,31.5Z" clip-rule="evenodd" fill-rule="evenodd" fill="#222375"/>
</svg>
