<svg width="100" height="44" viewBox="0 0 100 44" fill="none" xmlns="http://www.w3.org/2000/svg" xmlns:xlink="http://www.w3.org/1999/xlink">
<path d="M0.743,33.051C0.766,34.929 3.581,34.868 3.707,34.864C3.57,34.187 3.497,33.484 3.497,32.764C3.497,26.925 8.236,22.172 14.061,22.172C19.886,22.172 24.626,26.925 24.626,32.764C24.626,33.988 24.407,35.158 24.025,36.252C35.78,35.478 72.792,35.755 74.357,35.929C74.555,35.951 74.962,35.946 75.523,35.922C75.354,35.161 75.254,34.374 75.254,33.564C75.254,27.668 80.038,22.871 85.92,22.871C91.748,22.871 96.496,27.59 96.576,33.415L98.407,32.641C98.812,32.471 98.753,32.456 98.362,32.252C97.909,32.016 97.634,31.292 98.811,29.2C100.295,26.558 98.913,24.644 98.029,23.78C97.713,23.474 97.423,22.912 97.416,22.472C97.315,16.053 94.88,13.841 93.626,13.125C93.244,12.908 93.25,12.751 93.684,12.676C99.403,11.685 95.531,11.744 95.023,10.211C94.493,8.612 91.037,10.344 89.243,10.811C88.581,10.983 86.498,11.354 84.134,11.755C84.243,11.636 84.31,11.511 84.276,11.378C84.181,11.009 84.068,10.716 83.961,10.489C83.773,10.089 83.345,9.505 83.006,9.221C82.587,8.868 81.906,8.518 80.929,8.681C80.604,8.735 80.326,8.917 80.089,9.181C80.04,9.103 79.99,9.023 79.944,8.96C79.543,8.409 78.822,7.77 77.74,8.025C76.489,8.321 75.946,11.311 75.726,13.122C75.305,13.173 74.781,13.21 74.425,13.21L67.647,13.21C69.038,11.436 67.422,10.34 66.136,10.254C65.792,10.229 65.29,10.439 64.741,10.751C64.417,10.203 63.837,9.872 63.314,9.824C62.457,9.747 60.477,11.893 59.534,12.977C59.472,13.049 59.433,13.129 59.405,13.208L41.868,13.208L41.868,10.961C41.868,10.189 41.243,9.562 40.473,9.562C39.703,9.562 39.078,10.189 39.078,10.961L39.078,13.208L35.956,13.208C35.516,13.208 35.421,12.963 35.742,12.662C37.764,10.757 44.333,4.491 43.995,3.815C43.766,3.356 44.042,2.633 44.318,2.101C44.52,1.71 44.483,1.15 44.117,0.905C43.495,0.488 42.401,-0.002 40.857,0.197C40.42,0.253 39.732,0.45 39.336,0.643C35.989,2.287 27.751,9.408 25.46,11.413C25.128,11.704 24.504,11.968 24.065,12.005C4.552,13.65 1.801,20.021 1.445,22.277C1.377,22.712 1.107,23.282 0.831,23.626C-0.836,25.71 0.128,29.812 0.629,31.505C0.754,31.929 0.739,32.61 0.743,33.051Z" fill="#242E42"/>
<path d="M68.278,9.087C68.278,7.291 67.318,5.834 66.135,5.834C65.416,5.834 64.783,6.377 64.394,7.202C64.087,6.675 63.644,6.334 63.146,6.334C62.223,6.334 61.476,7.469 61.476,8.868C61.476,10.267 62.223,9.781 63.146,9.781C63.504,9.781 63.832,9.851 64.105,9.859C64.383,10.641 65.182,10.257 66.136,10.257C67.32,10.257 68.278,10.883 68.278,9.087Z" fill="#242E42"/>
<path d="M77.939,7.517C78.297,7.517 78.626,7.587 78.898,7.595C79.175,8.377 79.975,7.992 80.928,7.992C82.11,7.992 83.072,8.617 83.072,6.821C83.072,5.026 82.111,3.569 80.928,3.569C80.21,3.569 79.576,4.112 79.187,4.937C78.881,4.409 78.437,4.069 77.939,4.069C77.017,4.069 76.268,5.204 76.268,6.603C76.268,8.005 77.015,7.517 77.939,7.517Z" fill="#242E42"/>
<path d="M14.062,41.759C17.724,41.759 20.869,39.555 22.263,36.401C22.754,35.287 23.031,34.062 23.031,32.765C23.031,27.799 19.016,23.772 14.062,23.772C9.107,23.772 5.092,27.799 5.092,32.765C5.092,33.434 5.17,34.082 5.307,34.708C6.194,38.74 9.774,41.759 14.062,41.759Z" fill="#242E42"/>
<path d="M85.92,24.472C80.911,24.472 76.849,28.542 76.849,33.565C76.849,34.346 76.958,35.098 77.144,35.821C78.145,39.75 81.689,42.658 85.92,42.658C90.769,42.658 94.718,38.838 94.966,34.036C94.974,33.879 94.989,33.725 94.989,33.564C94.988,28.542 90.928,24.472 85.92,24.472Z" fill="#242E42"/>
</svg>
