<svg width="156" height="150" viewBox="0 0 156 150" fill="none" xmlns="http://www.w3.org/2000/svg" xmlns:xlink="http://www.w3.org/1999/xlink">
<g filter="url(#filter1_2776)">
<path d="M156,75C156,116.421 121.078,150 78,150C34.922,150 0,116.421 0,75C0,33.579 34.922,0 78,0C121.078,0 156,33.579 156,75Z" fill="#F5F9FC"/>
<path d="M156,75C156,116.421 121.078,150 78,150C34.922,150 0,116.421 0,75C0,33.579 34.922,0 78,0C121.078,0 156,33.579 156,75Z" stroke="#000000" stroke-width="1" stroke-miterlimit="3.999327"/>
<path d="M156,75C156,116.421 121.078,150 78,150C34.922,150 0,116.421 0,75C0,33.579 34.922,0 78,0C121.078,0 156,33.579 156,75Z" stroke="#000000" stroke-opacity="0.2" stroke-width="1" stroke-miterlimit="3.999327"/>
</g>
<defs>
<filter id="filter1_2776" x="-4" y="-4" width="86" height="83" filterUnits="userSpaceOnUse" color-interpolation-filters="sRGB">
<feFlood flood-opacity="0" result="BackgroundImageFix"/>
<feColorMatrix in="SourceAlpha" type="matrix" values="0 0 0 0 0 0 0 0 0 0 0 0 0 0 0 0 0 0 127 0" result="hardAlpha"/>
<feMorphology radius="0" operator="dilate" in="SourceAlpha" result="0dropshadow"/>
<feOffset dx="0" dy="4"/>
<feGaussianBlur stdDeviation="2"/>
<feComposite in2="hardAlpha" operator="out"/>
<feColorMatrix type="matrix" values="0 0 0 0 0 0 0 0 0 0 0 0 0 0 0 0 0 0 0.25 0"/>
<feBlend mode="normal" in2="BackgroundImageFix" result="0dropshadow"/>
<feBlend mode="normal" in="SourceGraphic" in2="0dropshadow" result="shape"/>
</filter>
</defs>
</svg>
