<svg width="32" height="32" viewBox="0 0 32 32" fill="none" xmlns="http://www.w3.org/2000/svg" xmlns:xlink="http://www.w3.org/1999/xlink">
<path d="M16,21.773C12.813,21.773 10.227,19.187 10.227,16C10.227,12.813 12.813,10.227 16,10.227C19.187,10.227 21.773,12.813 21.773,16C21.773,19.187 19.187,21.773 16,21.773ZM16,12.227C13.92,12.227 12.227,13.92 12.227,16C12.227,18.08 13.92,19.773 16,19.773C18.08,19.773 19.773,18.08 19.773,16C19.773,13.92 18.08,12.227 16,12.227Z" fill="#646473" fill-opacity="0.5"/>
<path d="M16,28.027C10.987,28.027 6.253,25.093 3,20C1.587,17.8 1.587,14.213 3,12C6.267,6.906 11,3.973 16,3.973C21,3.973 25.733,6.906 28.987,12C30.4,14.2 30.4,17.786 28.987,20C25.733,25.093 21,28.027 16,28.027ZM16,5.973C11.693,5.973 7.573,8.56 4.693,13.08C3.693,14.64 3.693,17.36 4.693,18.92C7.573,23.44 11.693,26.027 16,26.027C20.307,26.027 24.427,23.44 27.307,18.92C28.307,17.36 28.307,14.64 27.307,13.08C24.427,8.56 20.307,5.973 16,5.973Z" fill="#646473" fill-opacity="0.5"/>
</svg>
