<svg width="58" height="58" viewBox="0 0 58 58" fill="none" xmlns="http://www.w3.org/2000/svg" xmlns:xlink="http://www.w3.org/1999/xlink">
<circle cx="29" cy="19.333" r="7.25" stroke="#222222" stroke-width="1" stroke-miterlimit="3.999327" stroke-linecap="round"/>
<path d="M35.228,13.603L35.671,14.5L35.228,13.603ZM38.116,13.126L37.986,14.118L38.116,13.126ZM40.783,14.334L40.123,15.086L40.783,14.334ZM42.328,16.82L41.362,17.079L42.328,16.82ZM42.232,19.746L41.285,19.424L42.232,19.746ZM40.527,22.125L41.136,22.918L40.527,22.125ZM37.788,23.156L37.853,24.154L37.788,23.156ZM33.958,16.104C34.358,15.412 34.954,14.854 35.671,14.5L34.786,12.706C33.714,13.235 32.824,14.069 32.226,15.104L33.958,16.104ZM35.671,14.5C36.388,14.147 37.193,14.013 37.986,14.118L38.247,12.135C37.062,11.979 35.858,12.178 34.786,12.706L35.671,14.5ZM37.986,14.118C38.778,14.222 39.522,14.559 40.123,15.086L41.442,13.583C40.543,12.795 39.432,12.291 38.247,12.135L37.986,14.118ZM40.123,15.086C40.724,15.613 41.155,16.307 41.362,17.079L43.294,16.561C42.985,15.407 42.34,14.37 41.442,13.583L40.123,15.086ZM41.362,17.079C41.569,17.851 41.542,18.667 41.285,19.424L43.179,20.067C43.563,18.935 43.603,17.715 43.294,16.561L41.362,17.079ZM41.285,19.424C41.029,20.181 40.553,20.845 39.919,21.331L41.136,22.918C42.084,22.191 42.795,21.198 43.179,20.067L41.285,19.424ZM39.919,21.331C39.285,21.818 38.52,22.106 37.723,22.158L37.853,24.154C39.046,24.075 40.188,23.646 41.136,22.918L39.919,21.331ZM37.723,22.158C36.925,22.21 36.13,22.025 35.437,21.625L34.437,23.357C35.472,23.955 36.661,24.232 37.853,24.154L37.723,22.158Z" fill="#222222"/>
<path d="M18.312,13.603L18.754,14.5L18.312,13.603ZM21.2,13.126L21.069,14.118L21.2,13.126ZM23.866,14.334L23.207,15.086L23.866,14.334ZM25.412,16.82L24.446,17.079L25.412,16.82ZM25.316,19.746L24.369,19.424L25.316,19.746ZM23.611,22.125L24.22,22.918L23.611,22.125ZM20.871,23.156L20.937,24.154L20.871,23.156ZM17.041,16.104C17.441,15.412 18.037,14.854 18.754,14.5L17.87,12.706C16.798,13.235 15.907,14.069 15.309,15.104L17.041,16.104ZM18.754,14.5C19.471,14.147 20.277,14.013 21.069,14.118L21.33,12.135C20.146,11.979 18.941,12.178 17.87,12.706L18.754,14.5ZM21.069,14.118C21.862,14.222 22.606,14.559 23.207,15.086L24.525,13.583C23.627,12.795 22.515,12.291 21.33,12.135L21.069,14.118ZM23.207,15.086C23.808,15.613 24.239,16.307 24.446,17.079L26.377,16.561C26.068,15.407 25.424,14.37 24.525,13.583L23.207,15.086ZM24.446,17.079C24.653,17.851 24.626,18.667 24.369,19.424L26.263,20.067C26.647,18.935 26.687,17.715 26.377,16.561L24.446,17.079ZM24.369,19.424C24.112,20.181 23.636,20.845 23.002,21.331L24.22,22.918C25.168,22.191 25.879,21.198 26.263,20.067L24.369,19.424ZM23.002,21.331C22.368,21.818 21.604,22.106 20.806,22.158L20.937,24.154C22.129,24.075 23.272,23.646 24.22,22.918L23.002,21.331ZM20.806,22.158C20.008,22.21 19.213,22.025 18.521,21.625L17.521,23.357C18.556,23.955 19.744,24.232 20.937,24.154L20.806,22.158Z" transform="rotate(360 20.542 18.125)" fill="#222222"/>
<path d="M42.125,42.722L41.134,42.86L42.125,42.722ZM40.292,43.708L17.708,43.708L17.708,45.708L40.292,45.708L40.292,43.708ZM16.866,42.86C17.131,40.947 17.829,38.008 19.624,35.569C21.381,33.181 24.231,31.208 29,31.208L29,29.208C23.566,29.208 20.13,31.507 18.013,34.383C15.934,37.208 15.17,40.526 14.885,42.585L16.866,42.86ZM29,31.208C33.769,31.208 36.619,33.181 38.376,35.569C40.171,38.008 40.869,40.947 41.134,42.86L43.115,42.585C42.83,40.526 42.066,37.208 39.987,34.383C37.87,31.507 34.434,29.208 29,29.208L29,31.208ZM17.708,43.708C17.129,43.708 16.808,43.274 16.866,42.86L14.885,42.585C14.639,44.358 16.078,45.708 17.708,45.708L17.708,43.708ZM40.292,45.708C41.922,45.708 43.361,44.358 43.115,42.585L41.134,42.86C41.192,43.274 40.871,43.708 40.292,43.708L40.292,45.708Z" fill="#222222"/>
<path d="M46.741,37.704L47.715,37.48L47.715,37.48L46.741,37.704ZM31.627,30.416L30.889,29.742L29.648,31.101L31.463,31.403L31.627,30.416ZM41.521,39.875L40.561,40.153L40.77,40.875L41.521,40.875L41.521,39.875ZM37.458,28.792C40.132,28.792 41.979,30.161 43.299,32.022C44.638,33.91 45.379,36.242 45.766,37.928L47.715,37.48C47.304,35.688 46.489,33.063 44.93,30.865C43.351,28.639 40.957,26.792 37.458,26.792L37.458,28.792ZM32.366,31.09C33.607,29.73 35.241,28.792 37.458,28.792L37.458,26.792C34.585,26.792 32.441,28.042 30.889,29.742L32.366,31.09ZM31.463,31.403C37.137,32.345 39.531,36.592 40.561,40.153L42.482,39.597C41.354,35.697 38.564,30.555 31.791,29.43L31.463,31.403ZM44.915,38.875L41.521,38.875L41.521,40.875L44.915,40.875L44.915,38.875ZM45.766,37.928C45.87,38.381 45.534,38.875 44.915,38.875L44.915,40.875C46.663,40.875 48.141,39.334 47.715,37.48L45.766,37.928Z" fill="#222222"/>
<path d="M26.373,30.416L26.537,31.403L28.352,31.101L27.111,29.742L26.373,30.416ZM11.259,37.704L10.285,37.48L10.285,37.48L11.259,37.704ZM16.479,39.875L16.479,40.875L17.23,40.875L17.439,40.153L16.479,39.875ZM20.542,28.792C22.759,28.792 24.393,29.73 25.634,31.09L27.111,29.742C25.559,28.042 23.415,26.792 20.542,26.792L20.542,28.792ZM12.234,37.928C12.621,36.242 13.362,33.91 14.701,32.022C16.021,30.161 17.868,28.792 20.542,28.792L20.542,26.792C17.043,26.792 14.649,28.639 13.07,30.865C11.51,33.063 10.696,35.688 10.285,37.48L12.234,37.928ZM13.085,38.875C12.466,38.875 12.13,38.381 12.234,37.928L10.285,37.48C9.859,39.334 11.337,40.875 13.085,40.875L13.085,38.875ZM16.479,38.875L13.085,38.875L13.085,40.875L16.479,40.875L16.479,38.875ZM17.439,40.153C18.469,36.592 20.863,32.345 26.537,31.403L26.209,29.43C19.436,30.555 16.646,35.697 15.518,39.597L17.439,40.153Z" fill="#222222"/>
</svg>
