<svg width="38" height="42" viewBox="0 0 38 42" fill="none" xmlns="http://www.w3.org/2000/svg" xmlns:xlink="http://www.w3.org/1999/xlink">
<path d="M0.667,3.888C0.004,3.888 -0.533,4.425 -0.533,5.088C-0.533,5.751 0.004,6.288 0.667,6.288L0.667,3.888ZM15.833,6.288C16.496,6.288 17.033,5.751 17.033,5.088C17.033,4.425 16.496,3.888 15.833,3.888L15.833,6.288ZM12.7,0.5C12.7,-0.163 12.163,-0.7 11.5,-0.7C10.837,-0.7 10.3,-0.163 10.3,0.5L12.7,0.5ZM0.667,22.241C0.004,22.241 -0.533,22.778 -0.533,23.441C-0.533,24.104 0.004,24.641 0.667,24.641L0.667,22.241ZM0.667,6.288L15.833,6.288L15.833,3.888L0.667,3.888L0.667,6.288ZM10.3,0.5L10.3,5.088L12.7,5.088L12.7,0.5L10.3,0.5ZM10.3,5.088C10.3,9.979 9.127,14.349 7.293,17.455C5.443,20.589 3.061,22.241 0.667,22.241L0.667,24.641C4.255,24.641 7.289,22.185 9.36,18.675C11.447,15.139 12.7,10.333 12.7,5.088L10.3,5.088Z" fill="#000000"/>
<path d="M4.033,14.265C4.033,13.602 3.496,13.065 2.833,13.065C2.171,13.065 1.633,13.602 1.633,14.265L4.033,14.265ZM17.319,24.641C17.981,24.658 18.532,24.135 18.55,23.472C18.567,22.81 18.044,22.259 17.381,22.242L17.319,24.641ZM16.894,39.035C16.637,39.647 16.924,40.35 17.536,40.606C18.147,40.863 18.85,40.575 19.106,39.964L16.894,39.035ZM26.667,18.853L27.773,18.388C27.586,17.943 27.15,17.653 26.667,17.653C26.183,17.653 25.747,17.943 25.56,18.388L26.667,18.853ZM34.227,39.964C34.483,40.575 35.187,40.863 35.798,40.606C36.409,40.35 36.696,39.647 36.44,39.035L34.227,39.964ZM33.383,36.112C34.046,36.112 34.583,35.574 34.583,34.912C34.583,34.249 34.046,33.712 33.383,33.712L33.383,36.112ZM19.95,33.712C19.287,33.712 18.75,34.249 18.75,34.912C18.75,35.574 19.287,36.112 19.95,36.112L19.95,33.712ZM1.633,14.265C1.633,17.288 3.595,19.856 6.405,21.632C9.233,23.42 13.082,24.531 17.319,24.641L17.381,22.242C13.498,22.141 10.088,21.122 7.688,19.604C5.269,18.075 4.033,16.16 4.033,14.265L1.633,14.265ZM19.106,39.964L27.773,19.317L25.56,18.388L16.894,39.035L19.106,39.964ZM25.56,19.317L34.227,39.964L36.44,39.035L27.773,18.388L25.56,19.317ZM33.383,33.712L19.95,33.712L19.95,36.112L33.383,36.112L33.383,33.712Z" fill="#000000"/>
</svg>
