<svg width="112" height="170" viewBox="0 0 112 170" fill="none" xmlns="http://www.w3.org/2000/svg" xmlns:xlink="http://www.w3.org/1999/xlink">
<path d="M12.731,0L62.318,0C65.822,0 69.006,1.436 71.317,3.739C73.62,6.049 75.056,9.234 75.056,12.731L75.056,69.085C81.46,71.622 84.403,76.797 87.303,81.901C89.293,85.405 91.262,88.867 94.333,90.694C97.432,92.542 100.155,94.66 102.138,97.269C104.263,100.076 105.486,103.346 105.351,107.284C104.853,121.771 106.047,128.431 108.123,139.996C108.798,143.721 109.552,147.943 110.355,152.954C111.492,156.004 110.469,158.79 107.988,161.228C106.211,162.977 103.581,164.534 100.517,165.82C97.603,167.05 94.276,168.066 90.942,168.791C81.282,170.888 70.926,170.433 68.104,166.026C67.962,165.799 67.848,165.564 67.77,165.33C67.542,164.683 67.244,163.894 66.895,162.998L65.929,160.574C62.31,157.589 58.614,154.362 55.28,150.8C52.068,147.374 49.231,143.664 47.177,139.612C43.943,139.15 42.201,139.463 39.145,140.01C37.816,140.252 36.287,140.522 34.816,140.742C30.238,141.432 26.869,139.1 25.056,135.781C24.296,134.402 23.827,132.824 23.685,131.246C23.535,129.625 23.72,127.983 24.267,126.505L24.395,126.199C24.516,125.915 24.644,125.637 24.786,125.36L12.731,125.36C9.234,125.36 6.049,123.931 3.739,121.621C1.436,119.318 0,116.134 0,112.629L0,12.731C0,9.234 1.436,6.049 3.739,3.739C6.049,1.436 9.234,0 12.731,0ZM75.056,103.581L81.289,109.815C82.675,111.194 82.683,113.433 81.304,114.812C79.932,116.191 77.693,116.198 76.314,114.826L69.028,107.54C65.282,104.37 61.322,101.235 57.185,98.122C52.757,94.788 48.051,91.433 43.125,88.049C40.766,86.422 38.697,86.222 37.197,86.855C36.529,87.139 35.946,87.601 35.484,88.177C35.001,88.774 34.66,89.485 34.489,90.239C34.112,91.923 34.589,93.892 36.266,95.513C40.73,99.849 44.647,103.865 48.279,108.094C51.591,111.947 54.669,115.97 57.719,120.562C58.387,121.06 58.856,121.806 58.977,122.68C59.083,122.993 59.14,123.334 59.14,123.683C59.14,123.818 59.133,123.96 59.119,124.095C59.602,128.857 60.413,132.468 61.841,135.582C63.377,138.944 65.715,141.915 69.213,145.327C70.485,146.564 70.513,148.597 69.277,149.876C68.04,151.142 66.007,151.17 64.727,149.933C60.669,145.967 57.911,142.42 55.998,138.247C54.477,134.935 53.546,131.331 52.956,126.924L33.06,127.073C31.631,127.088 30.757,127.727 30.366,128.58L30.316,128.744C30.096,129.334 30.025,130.002 30.082,130.67C30.146,131.381 30.359,132.092 30.693,132.71C31.305,133.812 32.406,134.594 33.885,134.373C35.761,134.096 36.97,133.876 38.008,133.691C42.322,132.916 44.49,132.525 49.949,133.549C50.952,133.741 51.847,134.402 52.295,135.404C54.065,139.385 56.795,143.038 59.965,146.415C63.163,149.834 66.853,153.025 70.478,156.004C70.961,156.345 71.352,156.828 71.594,157.418L72.887,160.652L73.691,162.785C75.34,164.484 82.484,164.036 89.585,162.493C92.606,161.84 95.541,160.951 98.022,159.906C100.368,158.918 102.294,157.802 103.481,156.643C104.1,156.032 104.427,155.499 104.313,155.122C104.192,154.866 104.114,154.589 104.064,154.298C103.225,149.059 102.472,144.837 101.804,141.126C99.65,129.135 98.406,122.218 98.925,107.078C99.01,104.746 98.285,102.813 97.027,101.15C95.62,99.294 93.501,97.681 91.035,96.209C86.514,93.515 84.126,89.315 81.716,85.071C79.861,81.815 77.991,78.524 75.056,76.399L75.056,103.581ZM37.524,21.467C49.964,21.467 60.05,31.546 60.05,43.986C60.05,56.425 49.964,66.511 37.524,66.511C25.085,66.511 15.005,56.425 15.005,43.986C15.005,31.546 25.085,21.467 37.524,21.467ZM24.388,44.881L31.155,53.262C32.378,54.783 34.603,55.017 36.124,53.795L50.418,39.415C51.79,38.036 51.783,35.797 50.404,34.425C49.025,33.053 46.786,33.053 45.407,34.439L34.183,45.755L29.897,40.453C28.667,38.932 26.443,38.69 24.928,39.913C23.407,41.135 23.166,43.36 24.388,44.881ZM68.601,98.861L68.601,71.402L68.601,12.731C68.601,11.011 67.898,9.433 66.753,8.295C65.616,7.158 64.045,6.447 62.318,6.447L12.731,6.447C11.011,6.447 9.433,7.158 8.295,8.295C7.158,9.433 6.447,11.011 6.447,12.731L6.447,112.629C6.447,114.357 7.158,115.928 8.295,117.065C9.433,118.202 11.011,118.913 12.731,118.913L48.705,118.913C46.985,116.603 45.229,114.406 43.388,112.274L43.317,112.189L43.296,112.21L43.246,112.253L43.133,112.345L43.097,112.374L43.047,112.409L43.019,112.43L42.962,112.48L42.941,112.494L42.877,112.544L42.87,112.551L42.713,112.665L42.699,112.672L42.635,112.722L42.614,112.736L42.55,112.772L42.472,112.828L42.436,112.857L42.393,112.885L42.344,112.914L42.308,112.935L42.251,112.971L42.23,112.985L42.159,113.027L42.145,113.035L42.066,113.084L41.981,113.134L41.974,113.141L41.896,113.184L41.882,113.191L41.81,113.227L41.789,113.241L41.725,113.276L41.69,113.298L41.64,113.319L41.59,113.347L41.555,113.369L41.498,113.397L41.462,113.411L41.398,113.44L41.377,113.454L41.306,113.49L41.292,113.497L41.199,113.532L41.114,113.575L41.107,113.582L41.021,113.61L41,113.625L40.936,113.653L40.901,113.667L40.844,113.689L40.801,113.703L40.751,113.724L40.702,113.745L40.659,113.76L40.595,113.781L40.567,113.788L40.495,113.817L40.474,113.824L40.389,113.859L40.382,113.859L40.289,113.888L40.197,113.916L40.183,113.923L40.104,113.952L40.076,113.959L40.012,113.973L39.969,113.987L39.913,114.001L39.863,114.016L39.82,114.03L39.756,114.044L39.728,114.051L39.65,114.072L39.628,114.08L39.543,114.101L39.529,114.101L39.436,114.122L39.337,114.143L39.33,114.143L39.237,114.165L39.216,114.165L39.145,114.179L39.109,114.186L39.045,114.2L38.996,114.207L38.946,114.215L38.889,114.222L38.846,114.229L38.775,114.243L38.747,114.243L38.662,114.257L38.647,114.257L38.555,114.271L38.548,114.271L38.448,114.279L38.441,114.279L38.342,114.293L38.327,114.293L38.242,114.3L38.214,114.3L38.143,114.307L38.1,114.307L38.043,114.314L37.986,114.314L37.936,114.314L37.872,114.321L37.837,114.321L37.759,114.328L37.737,114.328L37.645,114.328L37.631,114.328L37.524,114.328C35.065,114.328 32.826,113.326 31.212,111.705C29.577,110.085 28.575,107.846 28.575,105.379L28.575,105.265L28.582,105.159L28.582,105.144L28.582,105.052L28.582,105.031L28.589,104.938L28.589,104.917L28.596,104.832L28.596,104.803L28.603,104.725L28.603,104.69L28.611,104.611L28.618,104.576L28.618,104.505L28.625,104.462L28.632,104.398L28.639,104.355L28.646,104.292L28.653,104.242L28.653,104.185L28.667,104.128L28.674,104.078L28.682,104.014L28.689,103.972L28.696,103.908L28.703,103.865L28.717,103.794L28.724,103.766L28.738,103.687L28.746,103.659L28.76,103.574L28.767,103.552L28.781,103.467L28.788,103.446L28.81,103.36L28.81,103.346L28.831,103.247L28.838,103.24L28.859,103.147L28.859,103.14L28.888,103.04L28.888,103.033L28.916,102.934L28.916,102.927L28.945,102.834L28.945,102.827L28.973,102.735L28.98,102.721L29.009,102.635L29.016,102.614L29.037,102.536L29.051,102.507L29.073,102.436L29.087,102.408L29.108,102.337L29.122,102.301L29.144,102.237L29.158,102.202L29.179,102.145L29.2,102.095L29.222,102.045L29.243,101.996L29.257,101.953L29.279,101.896L29.3,101.853L29.328,101.797L29.343,101.761L29.371,101.697L29.385,101.669L29.414,101.598L29.428,101.569L29.463,101.498L29.471,101.477L29.506,101.406L29.52,101.384L29.556,101.306L29.563,101.292L29.606,101.207L29.613,101.199L29.655,101.114L29.663,101.107L29.712,101.022L29.762,100.929L29.762,100.922L29.812,100.844L29.819,100.83L29.918,100.666L29.933,100.645L29.975,100.581L29.99,100.56L30.032,100.489L30.046,100.467L30.089,100.403L30.103,100.375L30.146,100.318L30.167,100.29L30.231,100.197L30.26,100.155L30.295,100.112L30.324,100.069L30.359,100.027L30.388,99.984L30.423,99.941L30.444,99.906L30.487,99.856L30.508,99.828L30.551,99.771L30.572,99.749L30.622,99.685L30.743,99.543L30.764,99.522L30.771,99.515L30.835,99.444L30.899,99.373L30.906,99.366L30.906,99.358L30.978,99.28C28.184,96.089 27.459,92.25 28.22,88.853C28.603,87.118 29.385,85.497 30.473,84.147C31.575,82.775 33.018,81.652 34.702,80.941C38.079,79.512 42.351,79.718 46.779,82.761C51.712,86.144 56.482,89.556 61.038,92.982C63.647,94.944 66.177,96.906 68.601,98.861ZM40.467,108.99C38.448,106.779 36.309,104.583 34.027,102.323L34.013,102.337L33.991,102.358L33.97,102.379L33.956,102.401L33.942,102.422L33.927,102.436L33.906,102.465L33.892,102.479L33.871,102.507L33.863,102.514L33.835,102.55L33.828,102.557L33.799,102.6L33.771,102.642L33.764,102.642L33.736,102.678L33.736,102.685L33.707,102.721L33.7,102.735L33.679,102.763L33.672,102.777L33.65,102.806L33.643,102.827L33.622,102.849L33.608,102.87L33.593,102.891L33.579,102.92L33.572,102.934L33.551,102.969L33.544,102.977L33.522,103.019L33.515,103.026L33.494,103.062L33.494,103.069L33.465,103.112L33.444,103.154L33.437,103.161L33.416,103.204L33.409,103.211L33.394,103.247L33.387,103.261L33.366,103.296L33.359,103.311L33.345,103.339L33.337,103.36L33.323,103.389L33.309,103.417L33.302,103.431L33.288,103.467L33.281,103.481L33.266,103.517L33.259,103.524L33.245,103.566L33.238,103.574L33.224,103.623L33.202,103.673L33.181,103.716L33.181,103.73L33.167,103.766L33.16,103.78L33.146,103.815L33.138,103.837L33.131,103.865L33.124,103.886L33.11,103.915L33.103,103.943L33.096,103.965L33.089,104L33.082,104.014L33.067,104.05L33.067,104.064L33.053,104.107L33.053,104.114L33.039,104.164L33.025,104.213L33.025,104.22L33.01,104.263L33.01,104.27L32.996,104.313L32.996,104.327L32.989,104.37L32.982,104.384L32.975,104.419L32.975,104.441L32.968,104.469L32.961,104.498L32.954,104.519L32.947,104.555L32.947,104.576L32.939,104.611L32.939,104.626L32.932,104.668L32.932,104.682L32.918,104.725L32.918,104.732L32.918,104.782L32.918,104.789L32.911,104.839L32.911,104.846L32.904,104.889L32.904,104.903L32.897,104.945L32.897,104.96L32.897,105.002L32.89,105.024L32.89,105.052L32.89,105.081L32.883,105.102L32.883,105.137L32.883,105.159L32.883,105.201L32.883,105.216L32.883,105.258L32.883,105.265L32.875,105.315L32.875,105.322L32.875,105.379C32.875,106.659 33.394,107.824 34.24,108.67C35.079,109.509 36.238,110.028 37.524,110.028L37.581,110.028L37.588,110.028L37.631,110.028L37.645,110.028L37.688,110.028L37.709,110.028L37.737,110.028L37.766,110.021L37.787,110.021L37.83,110.021L37.837,110.021L37.887,110.014L37.894,110.014L37.944,110.014L37.993,110.007L38,110.007L38.043,109.999L38.064,109.999L38.093,109.992L38.121,109.992L38.143,109.985L38.178,109.985L38.199,109.978L38.235,109.971L38.249,109.971L38.292,109.964L38.299,109.964L38.342,109.957L38.356,109.957L38.399,109.95L38.406,109.95L38.448,109.935L38.47,109.935L38.491,109.928L38.526,109.921L38.541,109.921L38.576,109.907L38.59,109.907L38.633,109.893L38.64,109.893L38.69,109.886L38.74,109.871L38.747,109.871L38.789,109.857L38.804,109.85L38.832,109.843L38.861,109.836L38.882,109.829L38.91,109.822L38.932,109.815L38.967,109.8L38.974,109.8L39.024,109.786L39.067,109.765L39.074,109.765L39.116,109.751L39.131,109.751L39.159,109.736L39.18,109.729L39.209,109.715L39.237,109.708L39.251,109.701L39.287,109.687L39.301,109.68L39.344,109.665L39.344,109.658L39.394,109.644L39.436,109.623L39.443,109.616L39.479,109.601L39.493,109.594L39.529,109.58L39.543,109.573L39.571,109.559L39.6,109.544L39.614,109.537L39.65,109.523L39.657,109.516L39.699,109.495L39.742,109.473L39.749,109.466L39.785,109.445L39.799,109.445L39.827,109.424L39.841,109.417L39.87,109.402L39.891,109.388L39.913,109.374L39.941,109.36L39.955,109.353L39.991,109.331L39.998,109.324L40.041,109.296L40.076,109.274L40.083,109.267L40.119,109.246L40.133,109.239L40.161,109.217L40.176,109.203L40.197,109.189L40.225,109.175L40.24,109.161L40.268,109.139L40.275,109.132L40.311,109.104L40.318,109.104L40.353,109.075L40.396,109.047L40.403,109.04L40.431,109.018L40.446,109.004L40.467,108.99Z" fill="#080E1E"/>
<rect  x="12.599" y="15.766" width="49.821" height="58.362" fill="#FFFFFF"/>
<path d="M55.302,43.274C55.302,47.928 53.454,52.39 50.164,55.68C46.873,58.971 42.411,60.819 37.758,60.819C33.105,60.819 28.642,58.971 25.352,55.68C22.062,52.39 20.213,47.928 20.213,43.274C20.213,38.621 22.062,34.159 25.352,30.869C28.642,27.578 33.105,25.73 37.758,25.73C42.411,25.73 46.873,27.578 50.164,30.869C53.454,34.159 55.302,38.621 55.302,43.274L55.302,43.274ZM46.596,36.629C46.439,36.473 46.253,36.35 46.047,36.268C45.842,36.186 45.623,36.146 45.401,36.15C45.18,36.155 44.962,36.204 44.761,36.294C44.559,36.385 44.378,36.515 44.227,36.678L36.611,46.382L32.021,41.79C31.709,41.499 31.297,41.341 30.871,41.349C30.444,41.356 30.038,41.529 29.737,41.83C29.435,42.131 29.263,42.538 29.255,42.964C29.248,43.39 29.406,43.803 29.696,44.114L35.499,49.919C35.655,50.075 35.842,50.198 36.046,50.281C36.251,50.364 36.471,50.404 36.692,50.4C36.912,50.396 37.13,50.347 37.332,50.257C37.533,50.167 37.715,50.037 37.865,49.876L46.62,38.932C46.918,38.622 47.083,38.207 47.079,37.776C47.075,37.346 46.902,36.934 46.598,36.629L46.596,36.629Z" clip-rule="evenodd" fill-rule="evenodd" fill="#5679C2"/>
</svg>
