<svg width="58" height="58" viewBox="0 0 58 58" fill="none" xmlns="http://www.w3.org/2000/svg" xmlns:xlink="http://www.w3.org/1999/xlink">
<path d="M19.564,17.755L20.865,19.274L20.865,19.274L19.564,17.755ZM38.437,17.755L37.135,19.274L37.135,19.274L38.437,17.755ZM40.853,19.826L42.155,18.308L42.155,18.308L40.853,19.826ZM17.147,19.826L15.845,18.308L15.845,18.308L17.147,19.826ZM43.917,30.836L43.917,41.083L47.917,41.083L47.917,30.836L43.917,30.836ZM36.25,48.75L21.75,48.75L21.75,52.75L36.25,52.75L36.25,48.75ZM14.083,41.083L14.083,30.836L10.083,30.836L10.083,41.083L14.083,41.083ZM18.448,21.345L20.865,19.274L18.262,16.237L15.845,18.308L18.448,21.345ZM37.135,19.274L39.552,21.345L42.155,18.308L39.738,16.237L37.135,19.274ZM20.865,19.274C23.156,17.31 24.735,15.961 26.067,15.082C27.352,14.233 28.2,13.965 29,13.965L29,9.965C27.118,9.965 25.499,10.663 23.862,11.744C22.272,12.794 20.474,14.34 18.262,16.237L20.865,19.274ZM39.738,16.237C37.526,14.34 35.728,12.794 34.138,11.744C32.501,10.663 30.882,9.965 29,9.965L29,13.965C29.8,13.965 30.648,14.233 31.933,15.082C33.265,15.961 34.844,17.31 37.135,19.274L39.738,16.237ZM21.75,48.75C19.415,48.75 17.865,48.746 16.713,48.591C15.619,48.444 15.188,48.194 14.913,47.92L12.085,50.748C13.226,51.89 14.642,52.348 16.18,52.555C17.66,52.754 19.528,52.75 21.75,52.75L21.75,48.75ZM10.083,41.083C10.083,43.305 10.079,45.173 10.278,46.653C10.485,48.191 10.943,49.607 12.085,50.748L14.913,47.92C14.639,47.646 14.39,47.215 14.242,46.12C14.088,44.968 14.083,43.418 14.083,41.083L10.083,41.083ZM43.917,41.083C43.917,43.418 43.912,44.968 43.758,46.12C43.61,47.215 43.361,47.646 43.087,47.92L45.915,50.748C47.057,49.607 47.515,48.191 47.722,46.653C47.921,45.173 47.917,43.305 47.917,41.083L43.917,41.083ZM36.25,52.75C38.472,52.75 40.34,52.754 41.82,52.555C43.358,52.348 44.774,51.89 45.915,50.748L43.087,47.92C42.813,48.194 42.381,48.444 41.287,48.591C40.135,48.746 38.585,48.75 36.25,48.75L36.25,52.75ZM47.917,30.836C47.917,27.737 47.96,25.569 47.07,23.636L43.436,25.307C43.874,26.259 43.917,27.371 43.917,30.836L47.917,30.836ZM39.552,21.345C42.182,23.6 42.999,24.356 43.436,25.307L47.07,23.636C46.181,21.703 44.507,20.324 42.155,18.308L39.552,21.345ZM14.083,30.836C14.083,27.371 14.126,26.259 14.564,25.307L10.93,23.636C10.041,25.569 10.083,27.737 10.083,30.836L14.083,30.836ZM15.845,18.308C13.493,20.324 11.819,21.703 10.93,23.636L14.564,25.307C15.001,24.356 15.818,23.6 18.448,21.345L15.845,18.308Z" fill="#33363F"/>
<path d="M33.042,50.75C33.042,51.855 33.937,52.75 35.042,52.75C36.146,52.75 37.042,51.855 37.042,50.75L33.042,50.75ZM20.958,50.75C20.958,51.855 21.854,52.75 22.958,52.75C24.063,52.75 24.958,51.855 24.958,50.75L20.958,50.75ZM24.958,38.25L33.042,38.25L33.042,34.25L24.958,34.25L24.958,38.25ZM33.042,38.25L33.042,50.75L37.042,50.75L37.042,38.25L33.042,38.25ZM20.958,38.25L20.958,50.75L24.958,50.75L24.958,38.25L20.958,38.25ZM33.042,38.25L33.042,38.25L37.042,38.25C37.042,36.041 35.251,34.25 33.042,34.25L33.042,38.25ZM24.958,34.25C22.749,34.25 20.958,36.041 20.958,38.25L24.958,38.25L24.958,34.25Z" fill="#33363F"/>
</svg>
