<svg width="28" height="24" viewBox="0 0 28 24" fill="none" xmlns="http://www.w3.org/2000/svg" xmlns:xlink="http://www.w3.org/1999/xlink">
<path d="M25.102,6.313C26.196,5.492 27.18,4.508 27.946,3.359C26.962,3.797 25.813,4.125 24.665,4.234C25.868,3.523 26.743,2.43 27.18,1.062C26.087,1.719 24.829,2.211 23.571,2.484C22.477,1.336 21.001,0.68 19.36,0.68C16.188,0.68 13.618,3.25 13.618,6.422C13.618,6.859 13.672,7.297 13.782,7.734C9.024,7.461 4.758,5.164 1.915,1.719C1.422,2.539 1.149,3.523 1.149,4.617C1.149,6.586 2.133,8.336 3.719,9.375C2.79,9.32 1.86,9.102 1.094,8.664L1.094,8.719C1.094,11.508 3.063,13.805 5.688,14.352C5.251,14.461 4.704,14.57 4.212,14.57C3.829,14.57 3.501,14.516 3.118,14.461C3.829,16.758 5.962,18.398 8.477,18.453C6.508,19.984 4.047,20.914 1.368,20.914C0.876,20.914 0.438,20.859 0.001,20.805C2.516,22.445 5.524,23.375 8.805,23.375C19.36,23.375 25.102,14.68 25.102,7.078C25.102,6.805 25.102,6.586 25.102,6.313Z" fill="#080E1E"/>
</svg>
