<svg width="1072" height="636" viewBox="0 0 1072 636" fill="none" xmlns="http://www.w3.org/2000/svg" xmlns:xlink="http://www.w3.org/1999/xlink">
<mask id="mask_0_1_20454" style="mask-type:alpha" maskUnits="userSpaceOnUse" x="539.93457" y="467.462891" width="59.819347" height="63.896393">
<path d="M539.935,475.686C547.236,475.685 554.465,477.122 561.209,479.915C567.953,482.709 574.081,486.803 579.243,491.965C584.405,497.127 588.5,503.255 591.293,510C594.087,516.744 595.524,523.973 595.523,531.273L603.746,531.274C603.747,522.894 602.097,514.596 598.89,506.853C595.684,499.111 590.984,492.076 585.059,486.15C579.132,480.225 572.098,475.525 564.356,472.319C556.613,469.112 548.315,467.462 539.935,467.463L539.935,475.686ZM608.217,552.723C605.423,545.979 603.985,538.751 603.985,531.451L595.762,531.451C595.762,539.831 597.412,548.128 600.619,555.87C603.826,563.611 608.526,570.645 614.452,576.57C620.378,582.495 627.412,587.195 635.154,590.401C642.896,593.604 651.192,595.255 659.573,595.255L659.573,587.032C652.275,587.033 645.044,585.596 638.301,582.803C631.556,580.01 625.428,575.917 620.266,570.755C615.105,565.594 611.01,559.466 608.217,552.723Z" clip-rule="evenodd" fill-rule="evenodd" fill="#000000"/>
</mask>
<path d="M488.678,508.687C508.797,508.687 525.106,492.377 525.106,472.259C525.106,452.14 508.797,435.831 488.678,435.831C468.559,435.831 452.25,452.14 452.25,472.259C452.25,492.377 468.559,508.687 488.678,508.687Z" fill="#FFC774"/>
<path d="M539.935,475.686C547.236,475.685 554.465,477.122 561.209,479.915C567.953,482.709 574.081,486.803 579.243,491.965C584.405,497.127 588.5,503.255 591.293,510C594.087,516.744 595.524,523.973 595.523,531.273L603.746,531.274C603.747,522.894 602.097,514.596 598.89,506.853C595.684,499.111 590.984,492.076 585.059,486.15C579.132,480.225 572.098,475.525 564.356,472.319C556.613,469.112 548.315,467.462 539.935,467.463L539.935,475.686Z" fill="#3971D3"/>
<path d="M608.217,552.724C605.423,545.98 603.985,538.751 603.985,531.452L595.762,531.452C595.762,539.831 597.413,548.129 600.62,555.871C603.827,563.612 608.527,570.646 614.453,576.571C620.378,582.496 627.412,587.195 635.154,590.402C642.896,593.605 651.193,595.256 659.573,595.256L659.573,587.033C652.275,587.034 645.044,585.597 638.301,582.804C631.557,580.011 625.428,575.918 620.266,570.756C615.105,565.595 611.01,559.467 608.217,552.724Z" fill="#3971D3"/>
<g mask="url(#mask_0_1_20454)">
<path d="M638.013,518.645L580.055,518.645L580.055,549.968L638.013,549.968L638.013,518.645Z" fill="#FFFFFF"/>
</g>
<path d="M917.851,169.872C917.851,194.507 873.248,269.035 873.248,269.035C873.248,269.035 828.645,194.507 828.645,169.872C828.645,158.042 833.346,146.697 841.706,138.332C850.073,129.968 861.421,125.269 873.248,125.269C885.076,125.269 896.424,129.968 904.791,138.332C913.151,146.697 917.851,158.042 917.851,169.872L917.851,169.872Z" fill="#415A8E"/>
<path d="M873.247,192.492C886.267,192.492 896.82,181.938 896.82,168.919C896.82,155.9 886.267,145.346 873.247,145.346C860.227,145.346 849.674,155.9 849.674,168.919C849.674,181.938 860.227,192.492 873.247,192.492Z" fill="#FFC774"/>
<path d="M875.131,354.156L875.131,354.158L866.91,354.158C866.91,354.157 866.91,354.157 866.91,354.156L875.131,354.156ZM875.131,354.156L875.131,310.302L866.908,310.302L866.908,354.158L866.91,354.158C866.91,360.645 864.333,366.865 859.75,371.453L865.561,377.266C871.694,371.137 875.134,362.824 875.134,354.156L875.131,354.156ZM865.559,377.269C859.433,383.399 851.121,386.843 842.452,386.845L842.452,386.844L842.452,386.844L842.452,378.622C848.942,378.621 855.157,376.042 859.748,371.455L865.559,377.269ZM842.452,378.622L842.452,378.621L723.904,378.621L723.904,386.844L842.452,386.844L842.452,378.622L842.452,378.622Z" clip-rule="evenodd" fill-rule="evenodd" fill="#3971D3"/>
<path d="M937.093,494.298L997.423,494.298L997.423,441.396L937.093,441.396L937.093,494.298Z" fill="#FFFFFF"/>
<path d="M849.396,494.298L899.241,494.298L899.241,441.396L849.396,441.396L849.396,494.298Z" fill="#FFFFFF"/>
<path d="M785.824,568.183L750.205,568.183L750.205,618.453L785.824,618.453L785.824,568.183Z" fill="#FFFFFF"/>
<path d="M778.985,359.988L747.408,359.988L747.408,412.89L778.985,412.89L778.985,359.988Z" fill="#FFFFFF"/>
<path d="M258.048,635.774C400.15,635.774 515.348,633.643 515.348,631.012C515.348,628.38 400.15,626.249 258.048,626.249C115.946,626.249 0.75,628.38 0.75,631.012C0.75,633.643 115.946,635.774 258.048,635.774Z" fill="#FFFFFF"/>
<path d="M390.9,60.917L398.931,79.021L391.531,79.905Z" fill="#CBCBCB"/>
<path d="M434.245,56.806C427.478,56.017 421.354,60.863 420.565,67.629C419.776,74.395 424.622,80.52 431.389,81.309L434.245,56.806ZM459.902,84.632C466.668,85.421 472.793,80.575 473.582,73.809C474.37,67.042 469.524,60.918 462.758,60.129L459.902,84.632ZM431.389,81.309L459.902,84.632L462.758,60.129L434.245,56.806L431.389,81.309Z" fill="#32373F"/>
<path d="M441.945,70.288C442.749,63.382 440.432,57.439 436.771,57.012C433.109,56.586 429.49,61.839 428.686,68.744C427.882,75.65 430.198,81.593 433.86,82.019C437.521,82.446 441.141,77.193 441.945,70.288Z" fill="#2B292D"/>
<path d="M394.012,72.274L431.803,76.633L433.609,60.975L395.817,56.617L394.012,72.274Z" fill="#32373F"/>
<path d="M398.849,64.896C399.356,60.544 398.003,56.809 395.826,56.556C393.649,56.302 391.474,59.626 390.967,63.979C390.461,68.332 391.814,72.066 393.991,72.32C396.168,72.573 398.343,69.25 398.849,64.896Z" fill="#2B292D"/>
<path d="M398.313,56.859C398.313,56.859 398.245,55.489 400.561,54.002C410.154,47.951 438.524,43.47 436.962,68.591C435.447,92.952 412.587,83.194 403.521,77.205C400.924,75.491 401.582,73.155 401.582,73.155C401.582,73.155 415.397,75.176 415.849,66.439C416.301,57.702 398.313,56.859 398.313,56.859Z" fill="#969490"/>
<path d="M262.112,301.043C262.112,301.043 258.371,323.101 263.483,332.249C268.595,341.397 276.893,346.434 285.082,345.386C289.043,344.885 304.865,322.402 304.865,322.402L282.17,297.856L262.112,301.043Z" fill="#415A8E"/>
<path d="M362.009,630.938L265.737,630.938L273.008,602.095L316.056,601.623L362.009,630.938Z" fill="#080E1E"/>
<path d="M479.556,422.525L480.159,428.48L531.944,430.933L446.691,475.461L441.394,430.625L479.556,422.525Z" fill="#080E1E"/>
<path d="M440.471,161.306L397.56,167.644L406.263,232.743L316.92,234.95L327.199,297.766L253.191,307.284C243.509,234.82 299.412,127.776 299.412,127.776L301.467,140.186C309.204,125.063 316.728,115.75 356.658,116.799C396.889,117.861 408.956,119.176 408.956,119.176L400.562,81.597L439.573,70.482L457.535,135.033C458.329,137.887 458.509,140.878 458.061,143.807C457.613,146.735 456.545,149.535 454.931,152.02C453.317,154.505 451.194,156.618 448.7,158.219C446.207,159.82 443.402,160.872 440.471,161.306Z" fill="#FFFFFF"/>
<path d="M264.819,238.232C264.819,245.276 252.067,265.936 252.067,265.936C252.067,265.936 239.307,245.276 239.307,238.232C239.384,234.9 240.762,231.731 243.146,229.401C245.529,227.072 248.73,225.768 252.063,225.768C255.396,225.768 258.596,227.072 260.981,229.401C263.364,231.731 264.742,234.9 264.819,238.232L264.819,238.232Z" fill="#080E1E"/>
<path d="M297.923,285.459C297.923,292.504 285.164,313.171 285.164,313.171C285.164,313.171 272.411,292.504 272.411,285.459C272.488,282.127 273.866,278.957 276.25,276.628C278.634,274.299 281.834,272.995 285.167,272.995C288.5,272.995 291.7,274.299 294.084,276.628C296.468,278.957 297.846,282.127 297.923,285.459L297.923,285.459Z" fill="#080E1E"/>
<path d="M304.036,195.007C304.036,202.051 291.283,222.718 291.283,222.718C291.283,222.718 278.524,202.044 278.524,195.007C278.6,191.675 279.978,188.505 282.362,186.176C284.746,183.847 287.947,182.542 291.28,182.542C294.612,182.542 297.813,183.847 300.196,186.176C302.58,188.505 303.958,191.675 304.036,195.007L304.036,195.007Z" fill="#080E1E"/>
<path d="M339.929,147.773C339.929,154.817 327.169,175.477 327.169,175.477C327.169,175.477 314.417,154.817 314.417,147.773C314.494,144.441 315.872,141.271 318.256,138.942C320.64,136.613 323.84,135.309 327.173,135.309C330.506,135.309 333.707,136.613 336.09,138.942C338.474,141.271 339.852,144.441 339.929,147.773Z" fill="#080E1E"/>
<path d="M373.028,195.005C373.028,202.05 360.275,222.717 360.275,222.717C360.275,222.717 347.523,202.043 347.523,195.005C347.523,191.623 348.866,188.38 351.257,185.988C353.649,183.597 356.893,182.253 360.275,182.253C363.657,182.253 366.901,183.597 369.292,185.988C371.684,188.38 373.028,191.623 373.028,195.005L373.028,195.005Z" fill="#080E1E"/>
<path d="M379.144,104.552C379.144,111.596 366.385,132.263 366.385,132.263C366.385,132.263 353.632,111.582 353.632,104.552C353.71,101.22 355.088,98.051 357.472,95.722C359.855,93.392 363.056,92.088 366.388,92.088C369.721,92.088 372.922,93.392 375.305,95.722C377.689,98.051 379.067,101.22 379.144,104.552Z" fill="#080E1E"/>
<path d="M417.576,145.773C417.576,152.817 404.823,173.477 404.823,173.477C404.823,173.477 392.071,152.817 392.071,145.773C392.071,142.39 393.414,139.147 395.806,136.755C398.198,134.364 401.441,133.02 404.823,133.02C408.206,133.02 411.449,134.364 413.841,136.755C416.232,139.147 417.576,142.39 417.576,145.773L417.576,145.773Z" fill="#080E1E"/>
<path d="M456.793,102.539C456.793,109.583 444.041,130.25 444.041,130.25C444.041,130.25 431.288,109.583 431.288,102.539C431.288,99.156 432.631,95.913 435.023,93.521C437.415,91.13 440.658,89.786 444.041,89.786C447.422,89.786 450.666,91.13 453.058,93.521C455.449,95.913 456.793,99.156 456.793,102.539L456.793,102.539Z" fill="#080E1E"/>
<path d="M502.978,272.859L486.752,425.815L435.18,436.834L435.29,300.626L369.087,313.351L320.379,602.096L267.094,602.842L285.706,296.953C286.362,286.317 287.736,275.738 289.817,265.287L295.717,235.438L382.326,233.176L465.927,231.963C471.146,231.893 476.32,232.934 481.108,235.017C485.894,237.1 490.18,240.178 493.686,244.046C497.19,247.915 499.832,252.485 501.434,257.453C503.036,262.42 503.564,267.672 502.978,272.859Z" fill="#EA6F57"/>
<path d="M296.403,235.436L297.377,235.765L297.405,235.68L297.419,235.592L296.403,235.436ZM308.462,150.185L295.387,235.28L297.419,235.592L310.494,150.497L308.462,150.185ZM296.403,235.436C295.429,235.107 295.429,235.108 295.429,235.108C295.429,235.108 295.429,235.109 295.428,235.11C295.428,235.111 295.427,235.114 295.426,235.116C295.424,235.122 295.422,235.129 295.418,235.14C295.412,235.16 295.402,235.19 295.389,235.229C295.363,235.307 295.326,235.423 295.277,235.576C295.179,235.882 295.037,236.338 294.856,236.943C294.494,238.152 293.978,239.953 293.357,242.337C292.117,247.103 290.459,254.195 288.784,263.518C285.434,282.166 282.013,309.74 281.718,345.493L283.774,345.51C284.068,309.88 287.476,282.422 290.807,263.882C292.473,254.612 294.119,247.572 295.347,242.855C295.961,240.496 296.47,238.718 296.825,237.533C297.003,236.94 297.141,236.495 297.235,236.2C297.283,236.053 297.318,235.942 297.342,235.87C297.354,235.834 297.363,235.807 297.369,235.789C297.372,235.78 297.374,235.774 297.375,235.77C297.376,235.768 297.376,235.767 297.377,235.766C297.377,235.765 297.377,235.765 297.377,235.765C297.377,235.765 297.377,235.765 296.403,235.436Z" fill="#FFFFFF"/>
<path d="M347.523,60.093L348.921,116.818Z" clip-rule="evenodd" fill-rule="evenodd" fill="#969490" stroke="#969490" stroke-width="13.705" stroke-miterlimit="3.999327" stroke-linecap="round" stroke-linejoin="round"/>
<path d="M361.824,102.231L364.819,102.656C368.294,103.15 371.836,102.872 375.192,101.841C378.548,100.81 381.635,99.053 384.234,96.694C386.834,94.335 388.881,91.431 390.23,88.191C391.58,84.951 392.2,81.453 392.044,77.946L391.276,60.574C391.023,54.966 388.804,49.627 385.007,45.492C381.21,41.357 376.079,38.691 370.513,37.961L370.513,37.961C364.235,37.138 357.888,38.842 352.866,42.696C347.843,46.551 344.556,52.242 343.726,58.519L341.506,75.465C340.686,81.703 342.359,88.013 346.163,93.025C349.968,98.036 355.595,101.344 361.824,102.231L361.824,102.231Z" fill="#969490"/>
<path d="M242.424,87.49C244.103,125.426 272.089,122.52 272.089,122.52C272.089,122.52 251.75,166.315 296.484,157.023C341.217,147.731 354.86,113.914 350.728,95.707C349.077,88.457 351.174,77.068 346.165,72.134C370.429,65.103 370.518,54.214 370.518,54.214C370.518,54.214 402.91,64.637 398.614,34.13C394.317,3.622 361.768,-2.12 343.321,0.6C339.432,1.183 335.653,2.355 332.117,4.075C320.707,9.509 312.388,17.745 296.614,20.041C253.025,26.393 265.037,53.618 265.037,53.618C265.037,53.618 241.293,61.828 242.424,87.49Z" fill="#2B292D"/>
<path d="M386.987,67.284C388.735,67.284 390.152,66.146 390.152,64.742C390.152,63.338 388.735,62.2 386.987,62.2C385.238,62.2 383.821,63.338 383.821,64.742C383.821,66.146 385.238,67.284 386.987,67.284Z" fill="#FFFFFF"/>
<path d="M385.513,83.474C385.513,83.474 382.018,83.474 381.936,79.904L385.513,83.474Z" fill="#415A8E"/>
<path d="M385.513,84.502L386.54,84.502L386.54,82.447L385.513,82.447L385.513,84.502ZM382.963,79.881L382.939,78.853L380.884,78.9L380.908,79.928L382.963,79.881ZM385.513,83.474C385.513,82.447 385.513,82.447 385.514,82.447C385.514,82.447 385.514,82.447 385.514,82.447C385.515,82.447 385.516,82.447 385.516,82.447C385.517,82.447 385.518,82.447 385.518,82.447C385.52,82.447 385.52,82.447 385.519,82.447C385.519,82.447 385.515,82.447 385.508,82.446C385.495,82.446 385.471,82.445 385.437,82.442C385.369,82.437 385.265,82.427 385.137,82.405C384.877,82.361 384.543,82.274 384.218,82.111C383.898,81.949 383.602,81.72 383.381,81.393C383.163,81.071 382.98,80.598 382.963,79.881L380.908,79.928C380.933,80.996 381.217,81.862 381.677,82.544C382.135,83.22 382.728,83.661 383.292,83.946C383.851,84.228 384.396,84.365 384.793,84.432C384.994,84.466 385.164,84.484 385.288,84.493C385.35,84.497 385.4,84.5 385.438,84.501C385.457,84.502 385.473,84.502 385.486,84.502C385.492,84.502 385.497,84.502 385.502,84.502C385.504,84.502 385.506,84.502 385.508,84.502C385.509,84.502 385.51,84.502 385.51,84.502C385.511,84.502 385.511,84.502 385.512,84.502C385.512,84.502 385.513,84.502 385.513,83.474Z" fill="#FFFFFF"/>
<path d="M361.935,82.105L362.476,81.728C366.512,78.85 367.889,72.463 365.532,67.529L361.194,58.422C358.837,53.495 353.609,51.81 349.545,54.681L349.011,55.065C344.968,57.943 343.59,64.329 345.948,69.263L350.292,78.363C352.67,83.311 357.898,84.983 361.935,82.105Z" fill="#CBCBCB"/>
<path d="M351.553,58.905L351.11,57.977L349.255,58.863L349.698,59.791L351.553,58.905ZM356.27,73.551L356.713,74.478L358.568,73.592L358.125,72.665L356.27,73.551ZM349.698,59.791L356.27,73.551L358.125,72.665L351.553,58.905L349.698,59.791Z" fill="#FFFFFF"/>
<path d="M350.701,312.117L351.013,311.137L351.013,311.137L350.701,312.117ZM369.765,314.926C369.755,313.898 369.755,313.898 369.755,313.898C369.755,313.898 369.755,313.898 369.755,313.898C369.755,313.898 369.755,313.898 369.755,313.898C369.754,313.898 369.752,313.898 369.75,313.898C369.746,313.899 369.74,313.899 369.731,313.899C369.714,313.899 369.687,313.899 369.651,313.899C369.58,313.899 369.473,313.898 369.332,313.897C369.05,313.894 368.635,313.887 368.107,313.869C367.05,313.833 365.545,313.755 363.757,313.588C360.173,313.252 355.487,312.559 351.013,311.137L350.39,313.096C355.057,314.58 359.902,315.292 363.565,315.634C365.4,315.806 366.947,315.886 368.037,315.923C368.582,315.942 369.013,315.949 369.31,315.953C369.458,315.954 369.573,315.955 369.651,315.955C369.69,315.955 369.721,315.954 369.741,315.954C369.752,315.954 369.76,315.954 369.765,315.954C369.768,315.954 369.77,315.954 369.772,315.954C369.773,315.954 369.773,315.954 369.774,315.954C369.774,315.954 369.774,315.954 369.775,315.954C369.775,315.954 369.775,315.954 369.765,314.926ZM351.013,311.137C345.501,309.386 341.884,307.741 339.661,306.548C338.55,305.951 337.787,305.468 337.31,305.141C337.072,304.977 336.905,304.852 336.801,304.772C336.749,304.732 336.714,304.703 336.693,304.686C336.682,304.677 336.675,304.671 336.672,304.669C336.671,304.667 336.67,304.667 336.67,304.667C336.67,304.667 336.671,304.667 336.671,304.668C336.672,304.668 336.672,304.668 336.672,304.669C336.673,304.669 336.673,304.669 336.673,304.669C336.673,304.669 336.674,304.67 335.996,305.442C335.318,306.215 335.318,306.215 335.319,306.216C335.319,306.216 335.319,306.216 335.319,306.216C335.32,306.217 335.321,306.218 335.321,306.218C335.323,306.219 335.325,306.221 335.326,306.222C335.33,306.226 335.335,306.23 335.34,306.234C335.351,306.244 335.366,306.256 335.385,306.271C335.421,306.302 335.473,306.344 335.541,306.396C335.677,306.502 335.876,306.65 336.147,306.836C336.688,307.207 337.515,307.729 338.689,308.359C341.037,309.619 344.773,311.312 350.39,313.096L351.013,311.137Z" fill="#FFFFFF"/>
<path d="M409.404,117.153L408.38,117.068L408.21,119.117L409.234,119.202L409.404,117.153ZM419.965,120.092L420.99,120.177L421.16,118.129L420.136,118.044L419.965,120.092ZM409.234,119.202L419.965,120.092L420.136,118.044L409.404,117.153L409.234,119.202Z" fill="#FFFFFF"/>
<path d="M137.342,489.741L137.342,565.578L164.361,614.464C166.384,614.464 168.388,614.861 170.257,615.635C172.127,616.41 173.825,617.54 175.256,618.973C176.686,620.405 177.821,622.104 178.595,623.975C179.369,625.839 179.767,627.847 179.766,629.868L179.766,630.937L142.618,630.937L98.351,553.723Z" fill="#080E1E"/>
<path d="M123.177,446.775L123.177,414.225C123.176,406.939 126.047,399.946 131.168,394.762C136.289,389.579 143.246,386.622 150.532,386.534L158.44,386.438C162.103,386.394 165.739,387.078 169.136,388.45C172.533,389.822 175.625,391.854 178.231,394.429C180.837,397.004 182.907,400.07 184.319,403.451C185.731,406.831 186.459,410.458 186.46,414.122L220.037,414.122C220.037,438.599 217.913,458.438 193.436,458.438L179.683,466.14L181.738,487.78C182.914,500.262 180.686,512.829 175.29,524.146L148.387,580.563C141.198,595.638 129.884,608.378 115.757,617.292C101.63,626.202 85.267,630.936 68.562,630.936L55.597,630.936C20.444,630.936 1.387,589.822 24.117,562.98L123.177,446.775Z" fill="#FFAF36"/>
<path d="M177.929,416.166C179.341,416.166 180.485,414.408 180.485,412.239C180.485,410.071 179.341,408.313 177.929,408.313C176.517,408.313 175.373,410.071 175.373,412.239C175.373,414.408 176.517,416.166 177.929,416.166Z" fill="#FFFFFF"/>
<path d="M55.599,630.944L157.071,630.944C157.071,626.243 155.203,621.734 151.879,618.411C148.554,615.087 144.045,613.216 139.343,613.216L83.838,613.216Z" fill="#FFAF36"/>
<path d="M175.853,489.741L175.853,565.578L202.873,614.464C204.896,614.464 206.9,614.861 208.77,615.635C210.639,616.41 212.339,617.54 213.769,618.973C215.201,620.405 216.336,622.104 217.111,623.975C217.885,625.839 218.284,627.847 218.284,629.868L218.284,630.937L181.129,630.937L136.869,553.723Z" fill="#FFAF36"/>
<path d="M105.259,612.032L104.231,612.052L104.251,613.059L105.259,613.059L105.259,612.032ZM126.728,611.004L105.259,611.004L105.259,613.059L126.728,613.059L126.728,611.004ZM105.259,612.032C106.286,612.011 106.286,612.011 106.286,612.01C106.286,612.009 106.286,612.008 106.286,612.007C106.286,612.005 106.286,612.001 106.286,611.997C106.286,611.988 106.285,611.976 106.285,611.959C106.284,611.927 106.283,611.879 106.281,611.816C106.277,611.69 106.271,611.505 106.262,611.264C106.242,610.783 106.209,610.08 106.152,609.188C106.039,607.403 105.833,604.857 105.462,601.803C104.72,595.701 103.315,587.547 100.658,579.38C95.373,563.134 84.944,546.336 64.459,546.336L64.459,548.392C83.498,548.392 93.47,563.928 98.703,580.016C101.306,588.015 102.689,596.029 103.421,602.051C103.787,605.06 103.99,607.566 104.101,609.318C104.156,610.194 104.189,610.88 104.208,611.346C104.217,611.58 104.223,611.758 104.226,611.876C104.228,611.936 104.229,611.98 104.23,612.01C104.23,612.025 104.231,612.035 104.231,612.042C104.231,612.046 104.231,612.048 104.231,612.05C104.231,612.051 104.231,612.051 104.231,612.052C104.231,612.052 104.231,612.052 105.259,612.032Z" fill="#FFFFFF"/>
<path d="M58.84,630.71L41.29,630.71C41.29,630.71 -10.85,605.157 3.136,544.005C17.122,482.853 14.285,617.869 58.84,630.71Z" fill="#FFAF36"/>
<path d="M184.384,470.822L117.407,447.983Z" clip-rule="evenodd" fill-rule="evenodd" fill="#080E1E" stroke="#080E1E" stroke-width="6.167" stroke-miterlimit="3.999327"/>
<path d="M138.719,410.423L133.203,437.833C132.781,439.929 132.972,442.103 133.755,444.093C134.538,446.082 135.879,447.804 137.616,449.05L156.193,462.372C157.112,463.021 158.193,463.407 159.316,463.485C160.439,463.565 161.562,463.335 162.564,462.821C163.567,462.307 164.408,461.528 165,460.57C165.59,459.611 165.908,458.509 165.917,457.383L165.917,397.3Z" fill="#FFAF36"/>
<path d="M133.203,437.833L134.21,438.036L134.21,438.036L133.203,437.833ZM133.755,444.093L132.798,444.469L132.799,444.469L133.755,444.093ZM137.616,449.05L137.016,449.886L137.017,449.886L137.616,449.05ZM156.193,462.372L155.594,463.207L155.6,463.211L156.193,462.372ZM159.316,463.485L159.389,462.46L159.388,462.46L159.316,463.485ZM162.564,462.821L162.095,461.906L162.095,461.906L162.564,462.821ZM165,460.57L165.875,461.109L165.875,461.109L165,460.57ZM165.917,457.383L166.944,457.391L166.944,457.383L165.917,457.383ZM137.711,410.22L132.195,437.63L134.21,438.036L139.727,410.626L137.711,410.22ZM132.195,437.63C131.734,439.92 131.943,442.295 132.798,444.469L134.712,443.717C134.001,441.911 133.827,439.938 134.21,438.036L132.195,437.63ZM132.799,444.469C133.654,446.642 135.118,448.524 137.016,449.886L138.215,448.215C136.639,447.084 135.422,445.522 134.711,443.716L132.799,444.469ZM137.017,449.886L155.594,463.207L156.792,461.536L138.215,448.215L137.017,449.886ZM155.6,463.211C156.673,463.969 157.934,464.419 159.244,464.511L159.388,462.46C158.452,462.394 157.552,462.073 156.786,461.532L155.6,463.211ZM159.244,464.511C160.554,464.603 161.865,464.335 163.033,463.735L162.095,461.906C161.26,462.335 160.324,462.526 159.389,462.46L159.244,464.511ZM163.033,463.735C164.203,463.136 165.185,462.227 165.875,461.109L164.125,460.03C163.632,460.829 162.931,461.478 162.095,461.906L163.033,463.735ZM165.875,461.109C166.564,459.991 166.934,458.705 166.944,457.391L164.889,457.375C164.881,458.313 164.617,459.231 164.125,460.03L165.875,461.109ZM166.944,457.383L166.944,397.3L164.889,397.3L164.889,457.383L166.944,457.383Z" fill="#FFFFFF"/>
<path d="M220.064,414.123L209.518,414.123C209.518,414.123 209.313,424.176 219.078,424.189C219.807,420.885 220.138,417.506 220.064,414.123L220.064,414.123Z" fill="#080E1E"/>
</svg>
