<svg width="58" height="24" viewBox="0 0 58 24" fill="none" xmlns="http://www.w3.org/2000/svg" xmlns:xlink="http://www.w3.org/1999/xlink">
<path d="M7.734,22.513C13.11,22.513 16.304,18.309 16.304,11.189C16.304,8.509 15.791,6.253 14.81,4.51C13.389,1.8 10.942,0.335 7.852,0.335C3.252,0.335 0,3.426 0,7.762C0,11.834 2.93,14.793 6.958,14.793C9.434,14.793 11.44,13.636 12.437,11.629L12.48,11.629C12.48,11.629 12.539,11.629 12.554,11.629C12.583,11.629 12.686,11.629 12.686,11.629C12.686,16.463 10.855,19.349 7.764,19.349C5.947,19.349 4.541,18.353 4.058,16.756L0.293,16.756C0.923,20.228 3.867,22.513 7.734,22.513ZM7.866,11.79C5.435,11.79 3.706,10.062 3.706,7.645C3.706,5.286 5.522,3.484 7.881,3.484C10.239,3.484 12.056,5.315 12.056,7.703C12.056,10.062 10.283,11.79 7.866,11.79Z" fill="#080E1E"/>
<path d="M22.486,22.308C23.878,22.308 24.83,21.312 24.83,19.993C24.83,18.66 23.878,17.679 22.486,17.679C21.109,17.679 20.142,18.66 20.142,19.993C20.142,21.312 21.109,22.308 22.486,22.308ZM22.486,11.321C23.878,11.321 24.83,10.34 24.83,9.021C24.83,7.688 23.878,6.707 22.486,6.707C21.109,6.707 20.142,7.688 20.142,9.021C20.142,10.34 21.109,11.321 22.486,11.321Z" fill="#080E1E"/>
<path d="M38.541,22L42.159,22L42.159,18.06L45.016,18.06L45.016,14.866L42.159,14.866L42.159,0.862L36.827,0.862C33.092,6.487 30.118,11.189 28.214,14.69L28.214,18.06L38.541,18.06L38.541,22ZM31.715,14.734C34.176,10.398 36.373,6.927 38.395,3.938L38.6,3.938L38.6,14.954L31.715,14.954L31.715,14.734Z" fill="#080E1E"/>
<path d="M53.073,22L56.852,22L56.852,0.862L53.088,0.862L47.565,4.73L47.565,8.362L52.824,4.671L53.073,4.671L53.073,22Z" fill="#080E1E"/>
</svg>
