<svg width="32" height="32" viewBox="0 0 32 32" fill="none" xmlns="http://www.w3.org/2000/svg" xmlns:xlink="http://www.w3.org/1999/xlink">
<path d="M30.5,15.875C30.5,14.875 30.375,14.125 30.25,13.313L15.5,13.313L15.5,18.625L24.25,18.625C23.938,20.938 21.625,25.312 15.5,25.312C10.188,25.312 5.875,20.938 5.875,15.5C5.875,6.813 16.125,2.813 21.625,8.125L25.875,4.063C23.188,1.563 19.625,0 15.5,0C6.875,0 0,6.938 0,15.5C0,24.125 6.875,31 15.5,31C24.438,31 30.5,24.75 30.5,15.875Z" fill="#080E1E"/>
</svg>
