<svg width="822" height="1624" viewBox="0 0 822 1624" fill="none" xmlns="http://www.w3.org/2000/svg" xmlns:xlink="http://www.w3.org/1999/xlink">
<path d="M821.04,0L41.04,0L41.04,1624L821.04,1624L821.04,0Z" fill="url(#pf_0_1_16305)"/>
<path d="M721.938,664C715.302,672.52 711.142,682.78 704.028,690.96C682.25,716.04 642.626,713.84 609.45,720.78C578.918,727.232 551.3,742.834 530.578,765.34C522.402,774.26 515.206,784.36 504.868,790.88C475.748,809.3 437.352,792.28 402.45,792.02C358.77,791.7 319.936,818.6 289.422,848.66C275.424,862.42 259.949,878.24 239.918,878.5C228.291,878.64 217.475,873.36 206.264,870.36C175.21,862.04 140.827,872.12 115.93,891.82C95.608,907.82 57.69,951.12 67.632,977.48C77.387,1003.1 123.605,1009.48 147.026,1010.22C180.826,1011.18 217.6,1007.62 245.534,1025.92C259.013,1034.76 269.018,1047.92 282.974,1056.16C310.118,1072.16 344.708,1065.7 376.574,1063.4C411.72,1060.864 447.058,1064.138 481.052,1073.08C510.026,1080.72 537.754,1092.42 566.81,1099.82C617.764,1112.646 671.368,1112.052 722,1098.1L721.938,664Z" transform="rotate(360 394 886.51)" fill="url(#pf_0_1_16306)"/>
<path d="M809.136,597.277C812.01,601.108 813.072,588.708 810.676,583.723C796.93,555.256 772.226,575.813 753.356,563.33C741.774,555.668 733.317,536.017 722.465,524.935C711.613,513.853 694.742,516.901 691.534,540.178C691.055,543.721 690.826,547.84 689.326,550.065C688.545,550.923 687.673,551.411 686.781,551.49C685.888,551.568 684.998,551.236 684.181,550.518C669.601,541.455 662.769,509.321 651.229,489.588C634.92,461.862 609.571,462.274 590.7,482.667C571.829,503.059 558.706,539.848 550,578.738L809.136,597.277Z" transform="rotate(360 681 533)" fill="url(#pf_0_1_16307)"/>
<path d="M455.858,332.445C442.174,322.236 427.596,317.361 415.866,292.925C407.858,276.195 401.826,251.429 394.236,232.855C348.648,120.881 280.37,276.392 225.776,217.639C204.98,195.179 186.262,141.366 164.279,148.941C148.972,154.21 135.162,189.712 119.814,183.982C109.249,180.095 100.472,157.108 90.531,145.054C75.016,126.151 57.629,134.779 41.428,146.569C27.425,156.713 13.615,169.096 0,183.718L0,467.734L473.142,497.638C487.076,503.238 496.144,442.574 490.092,402.396C484.04,362.216 469.544,342.654 455.858,332.445Z" fill="url(#pf_0_1_16308)"/>
<defs>
<linearGradient id="pf_0_1_16305" x1="432" y1="-616" x2="432" y2="1073" gradientUnits="userSpaceOnUse">
<stop stop-color="#87CCFE"/>
<stop offset="0.712" stop-color="#F3FEFF"/>
</linearGradient>
<linearGradient id="pf_0_1_16306" x1="394" y1="1109.021" x2="394" y2="664" gradientUnits="userSpaceOnUse">
<stop stop-color="#FFFFFF"/>
<stop offset="1" stop-color="#FFFFFF" stop-opacity="0"/>
</linearGradient>
<linearGradient id="pf_0_1_16307" x1="681" y1="598" x2="681" y2="468" gradientUnits="userSpaceOnUse">
<stop stop-color="#FFFFFF"/>
<stop offset="1" stop-color="#FFFFFF" stop-opacity="0"/>
</linearGradient>
<linearGradient id="pf_0_1_16308" x1="218" y1="-15" x2="233" y2="498" gradientUnits="userSpaceOnUse">
<stop stop-color="#FFFFFF"/>
<stop offset="1" stop-color="#FFFFFF" stop-opacity="0"/>
</linearGradient>
</defs>
</svg>
