<svg width="780" height="1624" viewBox="0 0 780 1624" fill="none" xmlns="http://www.w3.org/2000/svg" xmlns:xlink="http://www.w3.org/1999/xlink">
<path d="M779.04,0L-0.96,0L-0.96,1624L779.04,1624L779.04,0Z" fill="url(#pf_0_1_20432)"/>
<path d="M779.041,584.379C772.405,592.899 768.245,603.159 761.131,611.339C739.353,636.419 699.729,634.219 666.553,641.159C636.021,647.611 608.403,663.213 587.681,685.719C579.505,694.639 572.309,704.739 561.971,711.259C532.851,729.679 494.455,712.659 459.553,712.399C415.873,712.079 377.039,738.979 346.525,769.039C332.527,782.799 317.052,798.619 297.021,798.879C285.394,799.019 274.578,793.739 263.367,790.739C232.313,782.419 197.93,792.499 173.033,812.199C152.711,828.199 114.793,871.499 124.735,897.859C134.49,923.479 180.708,929.859 204.129,930.599C237.929,931.559 274.703,927.999 302.637,946.299C316.116,955.139 326.121,968.299 340.077,976.539C367.221,992.539 401.811,986.079 433.677,983.779C468.823,981.243 504.161,984.517 538.155,993.459C567.129,1001.099 594.857,1012.799 623.913,1020.199C674.867,1033.025 728.471,1032.431 779.103,1018.479L779.041,584.379Z" fill="url(#pf_0_1_20433)"/>
<path d="M413.687,669.34C416.559,671.2 417.619,665.18 415.227,662.76C401.499,648.94 376.831,658.92 357.985,652.86C346.421,649.14 337.976,639.6 327.139,634.22C316.303,628.84 299.455,630.32 296.251,641.62C295.773,643.34 295.544,645.34 294.047,646.42C293.266,646.836 292.396,647.073 291.505,647.111C290.613,647.15 289.725,646.988 288.909,646.64C274.349,642.24 267.527,626.64 256.003,617.06C239.717,603.6 214.403,603.8 195.559,613.7C176.714,623.6 163.61,641.46 154.915,660.34L413.687,669.34Z" fill="url(#pf_0_1_20434)"/>
<path d="M771.572,546.76C774.444,548.62 775.504,542.6 773.112,540.18C759.384,526.361 734.716,536.34 715.87,530.28C704.306,526.561 695.861,517.021 685.024,511.641C674.188,506.261 657.339,507.741 654.136,519.041C653.658,520.761 653.429,522.761 651.931,523.841C651.151,524.257 650.281,524.494 649.39,524.532C648.498,524.57 647.609,524.409 646.794,524.061C632.234,519.661 625.411,504.061 613.888,494.481C597.602,481.021 572.288,481.221 553.443,491.121C534.599,501.021 521.495,518.881 512.8,537.761L771.572,546.76Z" transform="rotate(360 643.617 515.556)" fill="url(#pf_0_1_20435)"/>
<path d="M779.04,172.542C771.718,173.862 765.541,177.742 763.585,184.662C762.982,186.662 762.712,189.182 760.902,190.482C759.957,190.993 758.9,191.284 757.817,191.332C756.733,191.381 755.653,191.186 754.662,190.762C737.045,185.422 728.683,166.402 714.664,154.762C694.883,138.402 664.12,138.762 641.219,150.762C618.318,162.762 602.406,184.462 591.84,207.402L779.04,214.002L779.04,172.542Z" fill="url(#pf_0_1_20436)"/>
<path d="M454.956,352.54C441.268,349.44 426.688,347.96 414.956,340.54C406.948,335.46 400.916,327.94 393.324,322.3C347.732,288.3 279.444,335.52 224.844,317.68C204.044,310.86 185.325,294.52 163.339,296.82C148.03,298.42 134.219,309.2 118.869,307.46C108.302,306.28 99.525,299.3 89.582,295.64C74.066,289.9 56.677,292.52 40.474,296.1C26.468,299.18 12.657,302.94 -0.96,307.38L-0.96,393.62L472.24,402.7C486.176,404.4 495.244,385.98 489.192,373.78C483.14,361.58 468.642,355.64 454.956,352.54Z" fill="url(#pf_0_1_20437)"/>
<defs>
<linearGradient id="pf_0_1_20432" x1="390" y1="-248" x2="390" y2="1073" gradientUnits="userSpaceOnUse">
<stop stop-color="#FEBD87"/>
<stop offset="0.712" stop-color="#FFE7BE"/>
</linearGradient>
<linearGradient id="pf_0_1_20433" x1="451.103" y1="584.379" x2="451.103" y2="1029.4" gradientUnits="userSpaceOnUse">
<stop stop-color="#FFFFFF"/>
<stop offset="1" stop-color="#FFDB9D" stop-opacity="0"/>
</linearGradient>
<linearGradient id="pf_0_1_20434" x1="285.732" y1="606.58" x2="285.732" y2="669.691" gradientUnits="userSpaceOnUse">
<stop stop-color="#FFEED3"/>
<stop offset="1" stop-color="#FFE6BE" stop-opacity="0"/>
</linearGradient>
<linearGradient id="pf_0_1_20435" x1="643.617" y1="547.112" x2="643.617" y2="484" gradientUnits="userSpaceOnUse">
<stop stop-color="#FFFFFF"/>
<stop offset="0" stop-color="#FFF9EF"/>
<stop offset="1" stop-color="#FED48D" stop-opacity="0"/>
</linearGradient>
<linearGradient id="pf_0_1_20436" x1="685.44" y1="142.083" x2="685.44" y2="229.002" gradientUnits="userSpaceOnUse">
<stop stop-color="#FFEFD7"/>
<stop offset="1" stop-color="#FED085" stop-opacity="0"/>
</linearGradient>
<linearGradient id="pf_0_1_20437" x1="245.062" y1="292.24" x2="244.48" y2="424.001" gradientUnits="userSpaceOnUse">
<stop stop-color="#FFF6E7"/>
<stop offset="1" stop-color="#FED187" stop-opacity="0"/>
</linearGradient>
</defs>
</svg>
