<svg width="51" height="19" viewBox="0 0 51 19" fill="none" xmlns="http://www.w3.org/2000/svg">
<path d="M7.8989 11.8585C6.08523 11.876 4.62962 13.3635 4.64657 15.1815C4.64807 15.322 4.66103 15.4595 4.67948 15.5945C4.8979 17.216 6.28819 18.4585 7.96123 18.442C9.68114 18.4265 11.0759 17.0885 11.2026 15.3995C11.2096 15.307 11.2151 15.2135 11.2141 15.1185C11.1971 13.301 9.71256 11.8415 7.8989 11.8585Z" fill="#242E42"/>
<path d="M39.6764 11.8585C37.8628 11.876 36.4067 13.3635 36.4246 15.1815C36.4256 15.322 36.4386 15.4595 36.457 15.5945C36.6754 17.216 38.0657 18.4585 39.7388 18.442C41.4587 18.4265 42.8535 17.0885 42.9801 15.3995C42.9871 15.307 42.9926 15.2135 42.9916 15.1185C42.9741 13.301 41.4901 11.8415 39.6764 11.8585Z" fill="#242E42"/>
<path fill-rule="evenodd" clip-rule="evenodd" d="M48.8535 12.5915L49.9865 13.09C50.2264 13.1955 50.382 13.434 50.3825 13.6985V14.198C50.3825 14.5635 50.0867 14.8605 49.7222 14.8605H47.933V15.496C47.933 15.6315 47.8228 15.742 47.6876 15.742H47.1326C46.997 15.742 46.8868 15.6315 46.8868 15.496V14.9025L43.7347 15.4245C43.7347 15.4245 43.7476 15.218 43.7461 15.1135C43.7262 12.902 41.915 11.1035 39.67 11.1035C37.4435 11.125 35.6497 12.9585 35.6707 15.1905C35.6712 15.2305 35.6797 15.3035 35.6797 15.3035L11.9544 15.4585C11.9544 15.4585 11.9689 15.23 11.9679 15.1145C11.9474 12.903 10.1363 11.1045 7.89126 11.1045C5.66519 11.126 3.87148 12.9595 3.89242 15.1915C3.8931 15.2482 3.89861 15.3031 3.9041 15.3578C3.9067 15.3837 3.90929 15.4095 3.91137 15.4355C2.64674 15.4005 1.86134 15.352 1.7636 15.2805C1.09638 14.7965 0.946777 14.02 0.946777 14.02V12.6845C0.946777 12.48 1.07992 12.2995 1.2749 12.2415L1.7631 12.094C1.7631 12.094 1.74764 9.69651 1.74216 8.89751C1.73667 7.99601 2.33906 7.32151 3.61965 7.07751C5.08873 6.79751 9.50595 6.01501 9.50595 6.01501C9.50595 6.01501 13.3746 2.62151 14.8746 1.40551C15.2302 1.11751 15.6556 0.925006 16.1059 0.846006C21.3145 -0.0629937 42.9488 -0.189994 46.6674 0.910506C46.9087 0.982006 47.1092 1.15201 47.2209 1.37851C49.8409 6.70101 48.8535 12.5915 48.8535 12.5915ZM19.4314 6.51702C19.586 6.51702 19.7137 6.39652 19.7232 6.24202L19.9929 1.95902C19.9974 1.87702 19.9685 1.79652 19.9117 1.73752C19.8548 1.67852 19.776 1.64552 19.6942 1.64702L16.5451 1.71302C16.2225 1.71952 15.9128 1.84452 15.6749 2.06352L13.6768 3.90752C13.6768 3.90752 13.9131 4.12502 13.9595 4.69752C13.9889 5.06202 13.983 6.51702 13.983 6.51702H19.4314Z" fill="#242E42"/>
</svg>
