<svg width="50" height="50" viewBox="0 0 50 50" fill="none" xmlns="http://www.w3.org/2000/svg" xmlns:xlink="http://www.w3.org/1999/xlink">
<path d="M6.308,18.185L2.903,15.462C2.405,16.898 2.135,18.441 2.135,20.046C2.135,27.778 8.403,34.046 16.135,34.046C23.867,34.046 30.135,27.778 30.135,20.046C30.135,18.441 29.865,16.898 29.367,15.462L25.962,18.185C26.076,18.788 26.135,19.41 26.135,20.046C26.135,25.569 21.658,30.046 16.135,30.046C10.612,30.046 6.135,25.569 6.135,20.046C6.135,19.41 6.195,18.788 6.308,18.185Z" clip-rule="evenodd" fill-rule="evenodd" transform="rotate(181.152 16.135 24.754)" fill="#222222"/>
<path d="M22.841,24.912L21.279,23.663L20.28,24.912L21.279,26.161L22.841,24.912ZM40.841,26.912C41.946,26.912 42.841,26.016 42.841,24.912C42.841,23.807 41.946,22.912 40.841,22.912L40.841,26.912ZM29.279,13.662L21.279,23.663L24.403,26.161L32.403,16.161L29.279,13.662ZM21.279,26.161L29.279,36.161L32.403,33.663L24.403,23.663L21.279,26.161ZM22.841,26.912L40.841,26.912L40.841,22.912L22.841,22.912L22.841,26.912Z" transform="rotate(1.152 31.841 24.912)" fill="#222222"/>
</svg>
