<svg width="100" height="48" viewBox="0 0 100 48" fill="none" xmlns="http://www.w3.org/2000/svg" xmlns:xlink="http://www.w3.org/1999/xlink">
<path d="M18.94,32.071C14.776,32.071 11.399,35.454 11.399,39.631C11.399,39.955 11.425,40.272 11.465,40.582C11.933,44.311 15.097,47.193 18.939,47.193C22.887,47.193 26.122,44.151 26.449,40.277C26.467,40.063 26.482,39.849 26.482,39.631C26.483,35.454 23.107,32.071 18.94,32.071Z" fill="#242E42"/>
<path d="M83.635,32.071C79.47,32.071 76.094,35.454 76.094,39.631C76.094,39.955 76.119,40.272 76.159,40.582C76.626,44.311 79.792,47.193 83.633,47.193C87.581,47.193 90.815,44.151 91.143,40.277C91.161,40.063 91.174,39.849 91.174,39.631C91.176,35.454 87.801,32.071 83.635,32.071Z" fill="#242E42"/>
<path d="M70.093,0.617C69.716,0.223 69.198,0 68.652,0L55.786,0L45.796,8.993C44.308,9.179 43.021,9.407 41.995,9.684C36.069,11.283 21.115,21.14 21.115,21.14C21.115,21.14 4.662,23.695 1.523,31.219C1.523,31.219 0.169,32.012 -0.077,34.045C-0.204,35.091 0.105,36.679 0.446,38.01C0.82,39.466 2.024,40.562 3.505,40.793L10.646,41.915C10.539,41.524 10.45,41.127 10.399,40.717C10.354,40.363 10.324,40.001 10.324,39.63C10.324,34.867 14.188,30.993 18.94,30.993C23.692,30.993 27.557,34.867 27.557,39.63C27.557,39.879 27.541,40.123 27.521,40.365C27.449,41.209 27.254,42.016 26.956,42.773L27.795,42.818L75.237,41.531C75.176,41.263 75.128,40.993 75.092,40.717C75.046,40.363 75.018,40.001 75.018,39.63C75.018,34.867 78.883,30.993 83.633,30.993C88.386,30.993 92.25,34.867 92.25,39.63C92.25,39.879 92.234,40.123 92.213,40.365C92.205,40.474 92.189,40.58 92.173,40.686L92.173,40.686L92.173,40.687L92.173,40.687L92.173,40.687C92.166,40.737 92.158,40.787 92.152,40.838L96.246,40C97.934,39.654 99.129,38.14 99.069,36.411L98.721,25.939C98.665,24.269 98.207,22.638 97.386,21.185L91.97,11.604C91.082,10.035 89.456,9.031 87.66,8.94C85.341,8.824 81.798,8.661 77.662,8.523L70.093,0.617ZM71.618,8.354C68.437,8.206 64.72,8.069 62.238,8.093C60.62,8.109 58.391,8.205 56.095,8.33C61.059,8.201 66.527,8.242 71.618,8.354ZM72.508,21.621L71.418,10.71C66.253,10.593 60.67,10.542 55.779,10.655L55.779,22.307L72.508,21.621ZM29.203,23.087L27.548,23.18C27.098,23.205 26.686,22.931 26.535,22.505C26.383,22.081 26.53,21.608 26.892,21.341C27.864,20.629 29.055,19.778 30.382,18.879L30.382,21.663C29.574,22.348 29.203,23.087 29.203,23.087ZM33.134,20.555C33.188,20.545 33.242,20.536 33.303,20.533C36.239,20.423 36.737,23.087 36.737,23.087L51.111,22.498L51.111,10.83C47.72,11.015 44.991,11.325 43.495,11.81C40.208,12.877 36.385,15.006 33.012,17.15L33.012,20.573C33.054,20.569 33.094,20.562 33.134,20.555ZM91.418,19.475C90.916,20.349 90.003,20.904 88.998,20.946L77.178,21.43L76.119,10.836C81.004,10.985 85.085,11.169 87.152,11.281C88.109,11.332 88.971,11.885 89.417,12.735L91.469,16.638C91.938,17.531 91.918,18.603 91.418,19.475Z" clip-rule="evenodd" fill-rule="evenodd" fill="#242E42"/>
</svg>
