<svg width="34" height="22" viewBox="0 0 34 22" fill="none" xmlns="http://www.w3.org/2000/svg" xmlns:xlink="http://www.w3.org/1999/xlink">
<path d="M31.683,-0.664L29.703,-0.664C28.609,-0.664 27.723,0.231 27.723,1.336L27.723,18.669C27.723,19.774 28.609,20.669 29.703,20.669L31.683,20.669C32.777,20.669 33.663,19.774 33.663,18.669L33.663,1.336C33.663,0.231 32.777,-0.664 31.683,-0.664ZM20.457,4L22.437,4C23.531,4 24.417,4.895 24.417,6L24.417,18.667C24.417,19.771 23.531,20.667 22.437,20.667L20.457,20.667C19.363,20.667 18.477,19.771 18.477,18.667L18.477,6C18.477,4.895 19.363,4 20.457,4ZM13.203,8.672L11.222,8.672C10.129,8.672 9.242,9.567 9.242,10.672L9.242,18.672C9.242,19.777 10.129,20.672 11.222,20.672L13.203,20.672C14.296,20.672 15.183,19.777 15.183,18.672L15.183,10.672C15.183,9.567 14.296,8.672 13.203,8.672ZM3.96,12.672L1.98,12.672C0.887,12.672 0,13.567 0,14.672L0,18.672C0,19.777 0.887,20.672 1.98,20.672L3.96,20.672C5.054,20.672 5.941,19.777 5.941,18.672L5.941,14.672C5.941,13.567 5.054,12.672 3.96,12.672Z" clip-rule="evenodd" fill-rule="evenodd" fill="#000000"/>
</svg>
