<svg width="38" height="50" viewBox="0 0 38 50" fill="none" xmlns="http://www.w3.org/2000/svg" xmlns:xlink="http://www.w3.org/1999/xlink">
<path d="M18.519,48.166C20.397,48.166 29.345,36.929 31.552,33.35C34.943,27.848 37.037,24.593 37.037,18.519C37.037,8.291 28.746,0 18.519,0C8.291,0 0,8.291 0,18.519C0,24.624 1.94,27.858 5.32,33.35C7.676,37.178 16.64,48.166 18.519,48.166ZM18.519,27.778C23.632,27.778 27.778,23.632 27.778,18.519C27.778,13.405 23.632,9.259 18.519,9.259C13.405,9.259 9.259,13.405 9.259,18.519C9.259,23.632 13.405,27.778 18.519,27.778Z" clip-rule="evenodd" fill-rule="evenodd" fill="#F52D56" stroke="#000000" stroke-width="2" stroke-miterlimit="3.999327"/>
</svg>
