<svg width="40" height="18" viewBox="0 0 40 18" fill="none" xmlns="http://www.w3.org/2000/svg" xmlns:xlink="http://www.w3.org/1999/xlink">
<path d="M37.036,13.126L38.032,13.037L37.036,13.126ZM13.398,1.625L24.602,1.625L24.602,-0.375L13.398,-0.375L13.398,1.625ZM34.865,7.751C35.414,9.357 35.86,11.2 36.04,13.215L38.032,13.037C37.836,10.838 37.35,8.838 36.758,7.105L34.865,7.751ZM35.125,14.125L2.875,14.125L2.875,16.125L35.125,16.125L35.125,14.125ZM1.96,13.215C2.14,11.2 2.586,9.357 3.135,7.751L1.242,7.105C0.65,8.838 0.164,10.838 -0.032,13.037L1.96,13.215ZM2.875,14.125C2.298,14.125 1.92,13.672 1.96,13.215L-0.032,13.037C-0.187,14.78 1.243,16.125 2.875,16.125L2.875,14.125ZM36.04,13.215C36.08,13.672 35.702,14.125 35.125,14.125L35.125,16.125C36.757,16.125 38.187,14.78 38.032,13.037L36.04,13.215ZM24.602,1.625C29.224,1.625 33.486,3.71 34.865,7.751L36.758,7.105C34.996,1.946 29.7,-0.375 24.602,-0.375L24.602,1.625ZM13.398,-0.375C8.3,-0.375 3.004,1.946 1.242,7.105L3.135,7.751C4.514,3.71 8.776,1.625 13.398,1.625L13.398,-0.375Z" fill="#222222"/>
</svg>
