<svg width="60" height="48" viewBox="0 0 60 48" fill="none" xmlns="http://www.w3.org/2000/svg" xmlns:xlink="http://www.w3.org/1999/xlink">
<path d="M60,41.667L60,5C60,2.24 57.76,0 55,0L5,0C2.24,0 0,2.24 0,5L0,41.667C0,44.427 2.24,46.667 5,46.667L55,46.667C57.76,46.667 60,44.427 60,41.667ZM49.938,25.448C49.76,24.635 48.969,20.76 48.969,20.76L48.677,19.365C48.57,19.674 48.423,20.081 48.307,20.401L48.307,20.402L48.307,20.402C48.196,20.707 48.115,20.932 48.125,20.917C48.125,20.917 46.802,24.521 46.458,25.448L49.938,25.448ZM15.885,31.167L22.469,15L18.042,15L13.948,26.042L13.5,23.802L12.042,16.365C11.802,15.333 11.063,15.042 10.146,15L3.406,15L3.333,15.323C4.979,15.74 6.448,16.344 7.729,17.104L11.458,31.167L15.885,31.167ZM28.344,15L25.719,31.188L21.542,31.188L24.156,15L28.344,15ZM40.292,25.896C40.312,24.052 39.188,22.646 36.781,21.49C35.312,20.75 34.417,20.25 34.417,19.49C34.438,18.802 35.177,18.094 36.823,18.094C38.188,18.063 39.188,18.385 39.938,18.708L40.312,18.885L40.885,15.385C40.062,15.063 38.75,14.698 37.135,14.698C33,14.698 30.094,16.906 30.073,20.052C30.042,22.375 32.156,23.667 33.74,24.448C35.354,25.24 35.906,25.76 35.906,26.458C35.885,27.542 34.594,28.042 33.396,28.042C31.729,28.042 30.833,27.781 29.469,27.177L28.917,26.917L28.333,30.552C29.312,31 31.125,31.396 33,31.417C37.396,31.427 40.26,29.25 40.292,25.896ZM51.625,15L55,31.188L51.125,31.188C51.125,31.188 50.75,29.333 50.625,28.76L45.25,28.76C45.094,29.188 44.375,31.188 44.375,31.188L39.979,31.188L46.198,16.344C46.625,15.292 47.385,15 48.385,15L51.625,15Z" clip-rule="evenodd" fill-rule="evenodd" fill="#000000"/>
</svg>
