<svg width="192" height="192" viewBox="0 0 192 192" fill="none" xmlns="http://www.w3.org/2000/svg" xmlns:xlink="http://www.w3.org/1999/xlink">
<path d="M96,192C149.019,192 192,149.019 192,96C192,42.981 149.019,0 96,0C42.981,0 0,42.981 0,96C0,149.019 42.981,192 96,192ZM156.184,75.254L84.884,146.193C82.463,148.602 78.537,148.602 76.116,146.193L35.816,106.097C33.395,103.688 33.395,99.782 35.816,97.373L44.584,88.65C47.005,86.241 50.931,86.241 53.352,88.65L80.5,115.66L138.648,57.807C141.069,55.398 144.995,55.398 147.416,57.807L156.184,66.531C158.605,68.939 158.605,72.845 156.184,75.254Z" clip-rule="evenodd" fill-rule="evenodd" fill="#5679C2"/>
</svg>
