<svg width="60" height="48" viewBox="0 0 60 48" fill="none" xmlns="http://www.w3.org/2000/svg" xmlns:xlink="http://www.w3.org/1999/xlink">
<path d="M60,41.667L60,5C60,2.24 57.76,0 55,0L5,0C2.24,0 0,2.24 0,5L0,41.667C0,44.427 2.24,46.667 5,46.667L55,46.667C57.76,46.667 60,44.427 60,41.667ZM29.177,38.958C29.26,38.417 29.604,38.052 30.167,38.052C30.708,38.052 31.073,38.365 31.167,38.958L29.177,38.958ZM17.927,38.083C17.188,38.083 16.76,38.625 16.76,39.302C16.76,39.979 17.188,40.521 17.927,40.521C18.604,40.521 19.063,40.01 19.063,39.302C19.052,38.625 18.604,38.083 17.927,38.083ZM50.302,39.302C50.302,40.01 49.823,40.521 49.135,40.521C48.427,40.521 47.969,39.979 47.969,39.302C47.969,38.625 48.427,38.083 49.135,38.083C49.823,38.083 50.302,38.625 50.302,39.302ZM41.396,38.083C40.688,38.083 40.26,38.625 40.26,39.302C40.26,39.979 40.688,40.521 41.396,40.521C42.104,40.521 42.562,40.01 42.562,39.302C42.562,38.625 42.104,38.083 41.396,38.083ZM52.439,40.839C52.432,40.826 52.427,40.815 52.427,40.802C52.413,40.779 52.407,40.757 52.403,40.739C52.397,40.717 52.392,40.699 52.375,40.688C52.371,40.685 52.366,40.682 52.362,40.68L52.353,40.676C52.345,40.672 52.338,40.67 52.329,40.667L52.329,40.667C52.31,40.66 52.288,40.652 52.26,40.635C52.229,40.604 52.198,40.604 52.146,40.604C52.115,40.604 52.083,40.604 52.031,40.635C52.019,40.643 52.009,40.648 51.999,40.653C51.983,40.661 51.967,40.668 51.948,40.688L51.936,40.705C51.917,40.731 51.896,40.76 51.896,40.802C51.865,40.833 51.865,40.865 51.865,40.917C51.865,40.948 51.865,40.979 51.896,41.031C51.896,41.062 51.917,41.083 51.948,41.115C51.958,41.121 51.967,41.129 51.976,41.137C51.994,41.152 52.01,41.167 52.031,41.167C52.094,41.198 52.115,41.198 52.146,41.198C52.208,41.198 52.229,41.198 52.26,41.167C52.323,41.167 52.344,41.146 52.375,41.115C52.383,41.103 52.388,41.093 52.392,41.083C52.4,41.066 52.408,41.051 52.427,41.031C52.427,40.995 52.438,40.972 52.447,40.954C52.453,40.941 52.458,40.93 52.458,40.917C52.458,40.88 52.448,40.858 52.439,40.839ZM52.198,40.948C52.227,40.948 52.24,40.938 52.251,40.929C52.26,40.923 52.268,40.917 52.281,40.917C52.312,40.885 52.312,40.865 52.312,40.833C52.312,40.802 52.312,40.781 52.281,40.75C52.274,40.75 52.268,40.748 52.261,40.746L52.253,40.743L52.244,40.738C52.226,40.729 52.203,40.719 52.167,40.719L52,40.719L52,41.083L52.083,41.083L52.083,40.938L52.115,40.938L52.229,41.083L52.312,41.083L52.198,40.948ZM6.667,19.542C6.667,27.51 13.135,33.969 21.094,33.969C23.927,33.969 26.708,33.115 29.062,31.562C21.469,25.385 21.521,13.729 29.062,7.552C26.708,5.99 23.927,5.146 21.094,5.146C13.135,5.135 6.667,11.604 6.667,19.542ZM30,30.875C37.344,25.146 37.312,13.979 30,8.219C22.688,13.979 22.656,25.156 30,30.875ZM15.177,38.823C15.177,37.917 14.583,37.323 13.646,37.292C13.167,37.292 12.656,37.438 12.313,37.969C12.063,37.542 11.635,37.292 11.042,37.292C10.646,37.292 10.25,37.438 9.938,37.854L9.938,37.396L9.083,37.396L9.083,41.219L9.938,41.219C9.938,40.898 9.931,40.598 9.924,40.321C9.891,38.898 9.872,38.073 10.875,38.073C11.776,38.073 11.763,38.836 11.738,40.338C11.734,40.608 11.729,40.902 11.729,41.219L12.552,41.219C12.552,40.91 12.545,40.619 12.539,40.348C12.506,38.944 12.486,38.073 13.49,38.073C14.39,38.073 14.378,38.821 14.353,40.33L14.353,40.33C14.349,40.602 14.344,40.898 14.344,41.219L15.198,41.219L15.198,38.823L15.177,38.823ZM19.031,37.396L19.854,37.396L19.854,41.229L19.031,41.229L19.031,40.75C18.75,41.115 18.354,41.312 17.813,41.312C16.74,41.312 15.917,40.469 15.917,39.302C15.917,38.146 16.74,37.292 17.813,37.292C18.354,37.292 18.75,37.51 19.031,37.854L19.031,37.396ZM24.073,40.062C24.073,39.134 23.231,39.007 22.547,38.905C22.08,38.834 21.688,38.775 21.688,38.479C21.688,37.885 22.927,37.979 23.615,38.365L23.958,37.688C22.979,37.052 20.812,37.062 20.812,38.542C20.812,39.426 21.653,39.565 22.336,39.678C22.804,39.755 23.198,39.821 23.198,40.104C23.198,40.76 21.792,40.708 21.042,40.188L20.677,40.844C21.844,41.635 24.073,41.469 24.073,40.062ZM27.531,40.323L27.76,41.031C27.208,41.396 25.406,41.729 25.406,39.896L25.406,38.156L24.615,38.156L24.615,37.396L25.406,37.396L25.406,36.229L26.26,36.229L26.26,37.396L27.625,37.396L27.625,38.167L26.26,38.167L26.26,39.896C26.26,40.781 27.135,40.542 27.531,40.323ZM29.146,39.635L32.01,39.635C32.01,37.948 31.24,37.281 30.198,37.281C29.094,37.281 28.302,38.104 28.302,39.292C28.302,41.427 30.656,41.781 31.823,40.771L31.427,40.146C30.615,40.812 29.385,40.75 29.146,39.635ZM33.719,37.854C34.094,37.208 34.823,37.188 35.302,37.396L35.052,38.188C34.708,38.01 33.719,37.854 33.719,39.062L33.719,41.219L32.865,41.219L32.865,37.396L33.719,37.396L33.719,37.854ZM36.406,39.302C36.406,38.115 37.615,37.729 38.562,38.427L38.958,37.75C37.75,36.802 35.552,37.323 35.552,39.312C35.552,41.375 37.885,41.792 38.958,40.875L38.562,40.198C37.604,40.875 36.406,40.469 36.406,39.302ZM42.5,37.396L43.354,37.396L43.354,41.229L42.5,41.229L42.5,40.75C41.719,41.875 39.385,41.302 39.385,39.302C39.385,37.354 41.635,36.708 42.5,37.854L42.5,37.396ZM46.865,37.396C46.615,37.271 45.719,37.094 45.281,37.854L45.281,37.396L44.458,37.396L44.458,41.219L45.281,41.219L45.281,39.062C45.281,37.917 46.219,37.99 46.615,38.188L46.865,37.396ZM50.24,35.844L51.062,35.844L51.062,41.229L50.24,41.229L50.24,40.75C49.469,41.865 47.125,41.323 47.125,39.302C47.125,37.323 49.385,36.719 50.24,37.854L50.24,35.844ZM51.854,28.021L51.854,28.5L51.938,28.5L51.938,28.021L52.135,28.021L52.135,27.938L51.656,27.938L51.656,28.021L51.854,28.021ZM52.51,40.75C52.542,40.802 52.542,40.865 52.542,40.917C52.542,40.948 52.542,41 52.51,41.062C52.495,41.078 52.482,41.099 52.469,41.12C52.456,41.141 52.443,41.161 52.427,41.177C52.411,41.193 52.391,41.206 52.37,41.219C52.349,41.232 52.328,41.245 52.312,41.26C52.26,41.292 52.198,41.292 52.146,41.292C52.115,41.292 52.052,41.292 52,41.26C51.938,41.229 51.917,41.208 51.885,41.177C51.833,41.146 51.802,41.094 51.802,41.062C51.771,41 51.771,40.948 51.771,40.917C51.771,40.865 51.771,40.802 51.802,40.75C51.802,40.719 51.833,40.667 51.885,40.635C51.917,40.604 51.948,40.583 52,40.552C52.037,40.552 52.07,40.541 52.097,40.532C52.116,40.526 52.133,40.521 52.146,40.521C52.172,40.521 52.201,40.529 52.229,40.536C52.258,40.544 52.286,40.552 52.312,40.552C52.328,40.568 52.349,40.581 52.37,40.594L52.37,40.594C52.391,40.607 52.411,40.62 52.427,40.635C52.443,40.651 52.456,40.672 52.469,40.693L52.469,40.693C52.482,40.714 52.495,40.734 52.51,40.75ZM52.875,27.927L52.729,27.927L52.562,28.292L52.396,27.927L52.25,27.927L52.25,28.49L52.333,28.49L52.333,28.062L52.5,28.427L52.615,28.427L52.76,28.062L52.76,28.49L52.875,28.49L52.875,27.927ZM38.906,5.135C46.865,5.135 53.333,11.604 53.333,19.542C53.333,27.51 46.865,33.969 38.906,33.958C36.094,33.958 33.292,33.115 30.938,31.552C38.562,25.406 38.448,13.719 30.938,7.542C33.292,5.99 36.073,5.135 38.906,5.135Z" clip-rule="evenodd" fill-rule="evenodd" fill="#000000"/>
</svg>
