<svg width="48" height="48" viewBox="0 0 48 48" fill="none" xmlns="http://www.w3.org/2000/svg" xmlns:xlink="http://www.w3.org/1999/xlink">
<path d="M0,24C0,10.746 10.746,0 24,0C37.254,0 48,10.746 48,24C48,37.254 37.254,48 24,48C10.746,48 0,37.254 0,24ZM25.6,25.6L36.8,25.6C37.683,25.6 38.4,24.883 38.4,24C38.4,23.117 37.683,22.4 36.8,22.4L25.6,22.4L25.6,11.2C25.6,10.317 24.883,9.6 24,9.6C23.117,9.6 22.4,10.317 22.4,11.2L22.4,22.4L11.2,22.4C10.317,22.4 9.6,23.117 9.6,24C9.6,24.883 10.317,25.6 11.2,25.6L22.4,25.6L22.4,36.8C22.4,37.683 23.117,38.4 24,38.4C24.883,38.4 25.6,37.683 25.6,36.8L25.6,25.6Z" clip-rule="evenodd" fill-rule="evenodd" fill="#FFFFFF"/>
</svg>
