<svg width="32" height="32" viewBox="0 0 32 32" fill="none" xmlns="http://www.w3.org/2000/svg" xmlns:xlink="http://www.w3.org/1999/xlink">
<path d="M31.903,12.07C31.666,11.313 31.04,10.761 30.287,10.646L21.656,9.336L17.796,1.167C17.457,0.452 16.763,0 16,0C15.237,0 14.542,0.452 14.203,1.167L10.345,9.336L1.714,10.646C0.96,10.761 0.333,11.313 0.099,12.07C-0.138,12.828 0.059,13.658 0.605,14.215L6.851,20.574L5.377,29.555C5.249,30.339 5.557,31.132 6.174,31.6C6.52,31.866 6.933,32 7.349,32C7.668,32 7.988,31.921 8.28,31.759L16,27.519L23.719,31.759C24.011,31.921 24.332,32 24.65,32C25.064,32 25.479,31.866 25.827,31.6C26.444,31.132 26.752,30.339 26.624,29.555L25.151,20.574L31.396,14.215C31.941,13.66 32.137,12.828 31.903,12.07Z" fill="#FFCC00"/>
</svg>
