<svg width="100" height="72" viewBox="0 0 100 72" fill="none" xmlns="http://www.w3.org/2000/svg" xmlns:xlink="http://www.w3.org/1999/xlink">
<path d="M15.944,71.14C24.81,71.14 31.995,63.934 31.995,55.046C31.995,54.488 31.967,53.938 31.911,53.395L38.379,52.256C38.379,52.256 38.598,51.964 40.192,53.565C40.873,54.249 41.801,54.336 42.647,54.225C44.152,54.735 47.554,55.716 51.484,55.716C54.533,55.716 57.892,55.121 60.894,53.246C65.472,50.383 68.179,45.173 68.998,37.803C71.015,35.574 73.114,33.835 75.171,32.481L76.939,37.759C71.388,40.292 67.521,45.89 67.521,52.402C67.521,61.291 74.71,68.495 83.572,68.495C92.435,68.495 99.624,61.289 99.624,52.402C99.624,43.513 92.435,36.31 83.572,36.31C82.363,36.31 81.188,36.454 80.054,36.709L78.071,30.787C84.256,27.627 89.375,27.674 89.375,27.674L91.297,28.728L97.68,29.237C93.835,24.765 78.675,25.564 78.675,25.564L81.905,25.019C81.905,25.019 81.795,21.527 79.8,17.236C77.805,12.945 75.629,10.435 75.629,10.435C75.43,10.66 75.3,10.926 75.197,11.201C75.232,8.247 75.271,5.293 75.497,2.343C75.499,2.319 75.495,2.3 75.491,2.28C75.488,2.266 75.485,2.252 75.484,2.237C75.556,1.933 75.46,1.607 75.091,1.426C73.901,0.843 72.73,0.351 71.391,0.285C71.027,0.267 70.694,0.55 70.601,0.89C70.177,2.424 70.065,4.031 70.248,5.607L70.19,5.491C70.078,5.263 69.967,5.035 69.843,4.81C69.62,4.408 69.234,4.347 68.9,4.471C68.525,4.406 68.098,4.551 67.932,5.008C67.831,5.284 67.686,5.526 67.542,5.766C67.302,6.167 67.065,6.561 67.046,7.095C66.999,8.438 68.554,9.31 69.539,9.847C69.725,9.95 69.911,9.955 70.087,9.921C70.571,11.887 70.732,13.918 70.613,16.002C67.617,17.95 68.772,19.728 68.772,19.728L68.228,20.655C68.228,20.655 65.397,16.618 56.15,22.619C47.835,28.014 41.102,25.471 35.4,23.317L35.4,23.317C34.76,23.076 34.133,22.839 33.519,22.619C27.426,20.437 5.011,19.892 5.011,19.892C16.038,21.565 20.898,30.656 20.898,30.656L12.193,25.275C8.348,25.639 9.363,29.711 9.363,29.711L25.395,39.53C28.513,38.365 32.067,41.857 32.067,41.857L35.404,47.749L30.833,49.055C28.459,43.138 22.695,38.957 15.944,38.957C7.079,38.957 -0.106,46.163 -0.106,55.05C-0.106,63.936 7.08,71.14 15.944,71.14ZM83.571,41.247C89.706,41.247 94.693,46.25 94.693,52.401C94.693,58.551 89.705,63.553 83.571,63.553C77.436,63.553 72.448,58.551 72.448,52.401C72.448,48.077 74.918,44.327 78.517,42.477L82.013,52.923C82.244,53.612 82.884,54.048 83.571,54.048C83.742,54.048 83.919,54.019 84.092,53.963C84.952,53.671 85.415,52.739 85.128,51.875L81.632,41.427C82.262,41.316 82.909,41.247 83.571,41.247ZM73.622,7.306C73.162,7.709 72.679,8.092 72.179,8.483C71.948,8.661 71.694,8.717 71.462,8.683C72.076,10.754 72.344,12.903 72.3,15.103C72.663,14.94 73.058,14.777 73.494,14.616C73.516,13.569 73.531,12.523 73.546,11.477L73.546,11.476L73.546,11.475L73.546,11.474C73.566,10.084 73.585,8.695 73.622,7.306ZM54.7,34.218C62.35,31.918 64.945,35.381 65.76,37.232C65.085,43.655 62.883,48.112 59.168,50.442C54.296,53.496 47.912,52.303 44.848,51.449C45.184,46.938 46.815,36.59 54.7,34.218ZM26.051,50.416C24.292,46.575 20.43,43.894 15.944,43.894C9.811,43.894 4.82,48.897 4.818,55.046C4.818,61.197 9.808,66.2 15.942,66.2C22.077,66.2 27.066,61.197 27.066,55.046C27.066,54.811 27.05,54.58 27.033,54.348C27.031,54.318 27.029,54.287 27.026,54.256L14.44,56.474L14.005,53.856L26.051,50.416Z" clip-rule="evenodd" fill-rule="evenodd" fill="#242E42"/>
<path d="M63.768,40.073L49.295,40.073L46.901,50.33C61.483,53.056 63.768,40.073 63.768,40.073Z" fill="#242E42"/>
</svg>
