<svg width="52" height="60" viewBox="0 0 52 60" fill="none" xmlns="http://www.w3.org/2000/svg" xmlns:xlink="http://www.w3.org/1999/xlink">
<path d="M22.576,14.121L39.501,14.121C48.587,14.121 52.008,18.721 51.48,25.489C50.609,36.647 43.862,42.817 34.914,42.817L30.397,42.817C29.17,42.817 28.345,43.628 28.011,45.831L26.073,58.622C25.947,59.453 25.51,59.941 24.854,60L14.241,60C13.243,60 12.888,59.236 13.149,57.581L19.63,16.548C19.889,14.904 20.789,14.121 22.576,14.121Z" clip-rule="evenodd" fill-rule="evenodd" fill="#009DE2"/>
<path d="M11.995,0L28.937,0C33.708,0 39.367,0.155 43.153,3.494C45.682,5.724 47.009,9.278 46.703,13.093C45.664,26.029 37.926,33.274 27.549,33.274L19.194,33.274C17.772,33.274 16.829,34.217 16.428,36.769L14.097,51.601C13.945,52.564 13.528,53.131 12.767,53.199L2.331,53.199C1.173,53.199 0.761,52.313 1.064,50.395L8.579,2.815C8.88,0.908 9.923,0 11.995,0Z" clip-rule="evenodd" fill-rule="evenodd" fill="#113984"/>
<path d="M16.671,35.274L19.63,16.548C19.889,14.904 20.789,14.121 22.576,14.121L39.501,14.121C42.303,14.121 44.566,14.558 46.34,15.365C44.64,26.877 37.193,33.275 27.442,33.275L19.086,33.275C17.986,33.275 17.165,33.836 16.671,35.274Z" clip-rule="evenodd" fill-rule="evenodd" fill="#172C70"/>
</svg>
