<svg width="44" height="44" viewBox="0 0 44 44" fill="none" xmlns="http://www.w3.org/2000/svg" xmlns:xlink="http://www.w3.org/1999/xlink">
<path d="M26.272,4.723L28.262,4.524L28.262,4.524L26.272,4.723ZM25.968,3.083L24.19,4L24.19,4L25.968,3.083ZM26.862,7.636L28.452,6.423L28.452,6.423L26.862,7.636ZM28.719,8.405L28.452,6.423L28.452,6.423L28.719,8.405ZM31.196,6.762L32.462,8.31L32.462,8.31L31.196,6.762ZM32.571,5.818L33.179,7.724L33.179,7.724L32.571,5.818ZM33.974,5.888L34.77,4.053L34.77,4.053L33.974,5.888ZM35.249,6.964L33.834,8.379L33.834,8.379L35.249,6.964ZM37.036,8.751L38.45,7.337L38.45,7.337L37.036,8.751ZM38.112,10.025L39.947,9.23L39.947,9.23L38.112,10.025ZM38.182,11.429L40.087,12.038L40.087,12.038L38.182,11.429ZM37.238,12.804L35.69,11.538L35.69,11.538L37.238,12.804ZM35.595,15.281L33.613,15.014L33.613,15.015L35.595,15.281ZM36.364,17.138L35.151,18.728L35.151,18.728L36.364,17.138ZM39.277,17.728L39.476,15.738L39.476,15.738L39.277,17.728ZM40.917,18.032L41.834,16.255L41.834,16.255L40.917,18.032ZM41.86,19.075L43.72,18.339L43.72,18.339L41.86,19.075ZM41.86,24.925L40,24.19L40,24.19L41.86,24.925ZM40.917,25.968L41.833,27.745L41.833,27.745L40.917,25.968ZM39.277,26.272L39.078,24.282L39.013,24.289L38.948,24.299L39.277,26.272ZM39.277,26.272L39.476,28.262L39.541,28.256L39.606,28.245L39.277,26.272ZM36.365,26.862L35.152,25.271L35.152,25.271L36.365,26.862ZM35.596,28.719L33.614,28.986L33.614,28.986L35.596,28.719ZM37.238,31.195L35.69,32.462L35.69,32.462L37.238,31.195ZM38.182,32.57L36.277,33.178L36.277,33.178L38.182,32.57ZM38.112,33.974L36.277,33.178L36.277,33.178L38.112,33.974ZM37.036,35.248L38.45,36.662L38.45,36.662L37.036,35.248ZM35.249,37.035L33.834,35.62L33.834,35.621L35.249,37.035ZM33.975,38.111L34.77,39.946L34.77,39.946L33.975,38.111ZM32.571,38.181L31.962,40.086L31.962,40.086L32.571,38.181ZM31.196,37.237L32.462,35.689L32.445,35.675L31.196,37.237ZM31.196,37.237L29.929,38.785L29.946,38.799L31.196,37.237ZM28.719,35.594L28.986,33.612L28.986,33.612L28.719,35.594ZM26.862,36.363L28.452,37.576L28.452,37.576L26.862,36.363ZM26.272,39.277L24.282,39.078L24.282,39.078L26.272,39.277ZM25.967,40.917L24.19,40L24.19,40L25.967,40.917ZM24.926,41.86L24.19,40L24.19,40L24.926,41.86ZM19.075,41.86L19.81,40L19.81,40L19.075,41.86ZM18.032,40.917L19.81,40L19.81,40L18.032,40.917ZM17.728,39.277L15.738,39.476L15.738,39.476L17.728,39.277ZM17.138,36.364L15.548,37.577L15.548,37.577L17.138,36.364ZM15.281,35.595L15.015,33.613L15.015,33.613L15.281,35.595ZM12.804,37.238L11.538,35.69L11.506,35.716L11.475,35.743L12.804,37.238ZM12.804,37.238L14.071,38.786L14.102,38.76L14.133,38.733L12.804,37.238ZM11.429,38.182L12.038,40.087L12.038,40.087L11.429,38.182ZM10.025,38.112L9.23,39.947L9.23,39.947L10.025,38.112ZM8.751,37.036L10.165,35.621L10.165,35.621L8.751,37.036ZM6.964,35.249L5.55,36.663L5.55,36.663L6.964,35.249ZM5.888,33.975L7.723,33.179L7.723,33.179L5.888,33.975ZM5.818,32.571L7.723,33.179L7.723,33.179L5.818,32.571ZM6.762,31.196L8.31,32.462L8.31,32.462L6.762,31.196ZM8.405,28.719L10.387,28.986L10.387,28.986L8.405,28.719ZM7.636,26.862L8.849,25.272L8.849,25.272L7.636,26.862ZM4.723,26.272L4.524,28.262L4.524,28.262L4.723,26.272ZM3.083,25.968L4,24.19L4,24.19L3.083,25.968ZM2.14,24.925L0.28,25.661L0.28,25.661L2.14,24.925ZM2.14,19.074L0.28,18.339L0.28,18.339L2.14,19.074ZM3.083,18.033L2.166,16.255L2.166,16.255L3.083,18.033ZM4.723,17.728L4.723,15.728L4.623,15.728L4.524,15.738L4.723,17.728ZM4.723,17.728L4.723,19.728L4.823,19.728L4.922,19.718L4.723,17.728ZM7.637,17.138L6.424,15.548L6.424,15.548L7.637,17.138ZM8.406,15.281L10.388,15.015L10.388,15.015L8.406,15.281ZM6.763,12.804L8.31,11.537L8.31,11.537L6.763,12.804ZM5.818,11.428L7.724,10.82L7.724,10.82L5.818,11.428ZM5.888,10.025L4.053,9.23L4.053,9.23L5.888,10.025ZM6.965,8.75L8.379,10.164L8.379,10.164L6.965,8.75ZM8.751,6.964L7.337,5.549L7.337,5.549L8.751,6.964ZM10.026,5.887L9.23,4.052L9.23,4.052L10.026,5.887ZM11.429,5.817L12.038,3.912L12.038,3.912L11.429,5.817ZM12.804,6.762L14.071,5.214L14.071,5.214L12.804,6.762ZM15.281,8.404L15.548,6.422L15.548,6.422L15.281,8.404ZM17.138,7.635L15.548,6.422L15.548,6.422L17.138,7.635ZM17.728,4.723L19.718,4.922L19.718,4.922L17.728,4.723ZM18.032,3.083L16.255,2.167L16.255,2.167L18.032,3.083ZM19.075,2.14L19.81,4L19.81,4L19.075,2.14ZM24.925,2.14L25.661,0.28L25.661,0.28L24.925,2.14ZM28.262,4.524C28.222,4.117 28.182,3.714 28.125,3.374C28.065,3.014 27.966,2.594 27.745,2.166L24.19,4C24.144,3.911 24.154,3.878 24.18,4.036C24.21,4.214 24.236,4.462 24.282,4.922L28.262,4.524ZM28.452,6.423C28.579,6.589 28.539,6.662 28.468,6.272C28.402,5.901 28.348,5.378 28.262,4.524L24.282,4.922C24.361,5.709 24.43,6.418 24.532,6.98C24.629,7.524 24.802,8.233 25.272,8.849L28.452,6.423ZM28.452,6.423L28.452,6.423L25.272,8.849C26.144,9.992 27.561,10.579 28.986,10.387L28.452,6.423ZM29.929,5.214C29.265,5.758 28.857,6.09 28.548,6.305C28.222,6.531 28.246,6.451 28.452,6.423L28.986,10.387C29.754,10.284 30.377,9.904 30.83,9.589C31.3,9.263 31.85,8.811 32.462,8.31L29.929,5.214ZM31.962,3.913C31.504,4.06 31.137,4.286 30.84,4.498C30.559,4.698 30.246,4.955 29.929,5.214L32.462,8.31C32.82,8.017 33.014,7.86 33.161,7.756C33.291,7.662 33.275,7.693 33.179,7.724L31.962,3.913ZM34.77,4.053C33.882,3.668 32.884,3.619 31.962,3.913L33.179,7.724L33.179,7.724L34.77,4.053ZM36.663,5.55C36.373,5.261 36.088,4.974 35.828,4.747C35.554,4.506 35.211,4.245 34.77,4.053L33.179,7.724C33.087,7.684 33.074,7.652 33.195,7.757C33.331,7.876 33.507,8.052 33.834,8.379L36.663,5.55ZM38.45,7.337L36.663,5.55L33.834,8.379L35.621,10.166L38.45,7.337ZM39.947,9.23C39.755,8.789 39.493,8.446 39.253,8.172C39.026,7.912 38.739,7.627 38.45,7.337L35.621,10.166C35.948,10.493 36.124,10.669 36.243,10.805C36.348,10.926 36.316,10.913 36.276,10.821L39.947,9.23ZM40.087,12.038C40.381,11.116 40.332,10.118 39.947,9.23L36.276,10.821L36.276,10.821L40.087,12.038ZM38.786,14.071C39.045,13.754 39.302,13.441 39.502,13.16C39.714,12.863 39.94,12.496 40.087,12.038L36.276,10.821C36.307,10.725 36.337,10.709 36.244,10.839C36.139,10.986 35.983,11.18 35.69,11.538L38.786,14.071ZM37.577,15.548C37.549,15.754 37.469,15.778 37.695,15.452C37.91,15.143 38.242,14.735 38.786,14.071L35.69,11.538C35.189,12.15 34.737,12.7 34.41,13.17C34.095,13.623 33.716,14.246 33.613,15.014L37.577,15.548ZM37.577,15.548L37.577,15.548L33.613,15.015C33.421,16.439 34.008,17.856 35.151,18.728L37.577,15.548ZM39.476,15.738C38.622,15.652 38.099,15.598 37.728,15.532C37.338,15.461 37.411,15.421 37.577,15.548L35.151,18.728C35.767,19.198 36.476,19.371 37.02,19.468C37.582,19.57 38.291,19.639 39.078,19.718L39.476,15.738ZM41.834,16.255C41.406,16.034 40.986,15.935 40.626,15.875C40.286,15.818 39.883,15.778 39.476,15.738L39.078,19.718C39.538,19.764 39.786,19.79 39.964,19.82C40.122,19.846 40.089,19.856 40,19.81L41.834,16.255ZM43.72,18.339C43.364,17.439 42.694,16.699 41.834,16.255L40,19.81L40,19.81L43.72,18.339ZM44,20.736C44,20.327 44.001,19.923 43.978,19.578C43.954,19.214 43.897,18.787 43.72,18.339L40,19.81C39.963,19.717 39.976,19.685 39.987,19.845C39.999,20.025 40,20.274 40,20.736L44,20.736ZM44,23.264L44,20.736L40,20.736L40,23.264L44,23.264ZM43.72,25.66C43.897,25.213 43.954,24.786 43.978,24.422C44.001,24.078 44,23.673 44,23.264L40,23.264C40,23.726 39.999,23.975 39.987,24.155C39.976,24.315 39.963,24.283 40,24.19L43.72,25.66ZM41.833,27.745C42.694,27.301 43.364,26.561 43.72,25.66L40,24.19L40,24.19L41.833,27.745ZM39.476,28.262C39.883,28.222 40.286,28.182 40.626,28.125C40.986,28.065 41.406,27.966 41.833,27.745L40,24.19C40.089,24.144 40.122,24.154 39.964,24.18C39.786,24.21 39.538,24.236 39.078,24.282L39.476,28.262ZM39.606,28.245L39.606,28.245L38.948,24.299L38.948,24.299L39.606,28.245ZM37.578,28.452C37.412,28.579 37.339,28.538 37.729,28.468C38.1,28.401 38.622,28.348 39.476,28.262L39.078,24.282C38.291,24.361 37.583,24.43 37.02,24.531C36.477,24.629 35.768,24.802 35.152,25.271L37.578,28.452ZM37.578,28.452L37.578,28.452L35.152,25.271C34.009,26.143 33.422,27.561 33.614,28.986L37.578,28.452ZM38.786,29.929C38.242,29.264 37.911,28.857 37.696,28.548C37.47,28.222 37.55,28.246 37.578,28.452L33.614,28.986C33.717,29.754 34.096,30.377 34.411,30.83C34.737,31.299 35.189,31.849 35.69,32.462L38.786,29.929ZM40.087,31.961C39.94,31.503 39.714,31.136 39.502,30.839C39.302,30.558 39.045,30.245 38.786,29.929L35.69,32.462C35.983,32.819 36.14,33.013 36.244,33.16C36.338,33.291 36.307,33.274 36.277,33.178L40.087,31.961ZM39.947,34.769C40.332,33.881 40.381,32.883 40.087,31.961L36.277,33.178L36.277,33.178L39.947,34.769ZM38.45,36.662C38.739,36.372 39.026,36.087 39.253,35.828C39.493,35.553 39.755,35.211 39.947,34.769L36.277,33.178C36.316,33.087 36.348,33.073 36.243,33.194C36.124,33.33 35.948,33.506 35.622,33.833L38.45,36.662ZM36.663,38.449L38.45,36.662L35.622,33.833L33.834,35.62L36.663,38.449ZM34.77,39.946C35.211,39.755 35.554,39.493 35.828,39.252C36.088,39.025 36.373,38.738 36.663,38.449L33.834,35.621C33.507,35.947 33.331,36.123 33.195,36.242C33.074,36.347 33.087,36.315 33.179,36.276L34.77,39.946ZM31.962,40.086C32.884,40.38 33.882,40.331 34.77,39.946L33.179,36.276L33.179,36.276L31.962,40.086ZM29.929,38.785C30.246,39.044 30.559,39.301 30.84,39.501C31.137,39.713 31.504,39.939 31.962,40.086L33.179,36.276C33.275,36.306 33.291,36.337 33.161,36.243C33.014,36.139 32.82,35.982 32.462,35.689L29.929,38.785ZM29.946,38.799L29.946,38.799L32.445,35.675L32.445,35.675L29.946,38.799ZM28.452,37.576C28.246,37.548 28.222,37.468 28.548,37.694C28.857,37.909 29.265,38.241 29.929,38.785L32.462,35.689C31.85,35.188 31.3,34.736 30.83,34.41C30.377,34.095 29.754,33.715 28.986,33.612L28.452,37.576ZM28.452,37.576L28.452,37.576L28.986,33.612C27.561,33.42 26.144,34.008 25.272,35.15L28.452,37.576ZM28.262,39.476C28.348,38.621 28.402,38.098 28.468,37.727C28.539,37.337 28.579,37.41 28.452,37.576L25.272,35.15C24.802,35.766 24.629,36.476 24.532,37.019C24.43,37.581 24.361,38.29 24.282,39.078L28.262,39.476ZM27.745,41.834C27.966,41.406 28.065,40.986 28.125,40.626C28.182,40.286 28.222,39.883 28.262,39.476L24.282,39.078C24.236,39.538 24.21,39.786 24.18,39.964C24.154,40.122 24.144,40.089 24.19,40L27.745,41.834ZM25.661,43.72C26.561,43.364 27.301,42.694 27.745,41.834L24.19,40L24.19,40L25.661,43.72ZM23.263,44C23.673,44 24.077,44.001 24.422,43.978C24.786,43.954 25.214,43.897 25.661,43.72L24.19,40C24.283,39.963 24.315,39.976 24.155,39.987C23.975,39.999 23.726,40 23.263,40L23.263,44ZM20.736,44L23.263,44L23.263,40L20.736,40L20.736,44ZM18.339,43.72C18.787,43.897 19.214,43.954 19.578,43.978C19.923,44.001 20.327,44 20.736,44L20.736,40C20.274,40 20.025,39.999 19.845,39.987C19.685,39.976 19.717,39.963 19.81,40L18.339,43.72ZM16.255,41.834C16.699,42.694 17.439,43.364 18.339,43.72L19.81,40L19.81,40L16.255,41.834ZM15.738,39.476C15.778,39.883 15.818,40.286 15.875,40.626C15.935,40.986 16.034,41.406 16.255,41.834L19.81,40C19.856,40.089 19.846,40.122 19.82,39.964C19.79,39.786 19.764,39.538 19.718,39.078L15.738,39.476ZM15.548,37.577C15.421,37.411 15.461,37.338 15.532,37.728C15.598,38.099 15.652,38.622 15.738,39.476L19.718,39.078C19.639,38.291 19.57,37.582 19.468,37.02C19.371,36.476 19.198,35.767 18.728,35.151L15.548,37.577ZM15.548,37.577L15.548,37.577L18.728,35.151C17.856,34.008 16.439,33.421 15.015,33.613L15.548,37.577ZM14.071,38.786C14.735,38.242 15.143,37.91 15.452,37.695C15.778,37.469 15.754,37.549 15.548,37.577L15.015,33.613C14.246,33.716 13.623,34.095 13.17,34.41C12.7,34.737 12.15,35.189 11.538,35.69L14.071,38.786ZM14.133,38.733L14.133,38.733L11.475,35.743L11.475,35.743L14.133,38.733ZM12.038,40.087C12.496,39.94 12.863,39.714 13.16,39.502C13.441,39.302 13.754,39.045 14.071,38.786L11.538,35.69C11.18,35.983 10.986,36.14 10.839,36.244C10.708,36.338 10.725,36.307 10.821,36.277L12.038,40.087ZM9.23,39.947C10.118,40.332 11.116,40.381 12.038,40.087L10.821,36.277L10.821,36.277L9.23,39.947ZM7.337,38.45C7.626,38.739 7.912,39.026 8.172,39.253C8.446,39.494 8.789,39.755 9.23,39.947L10.821,36.277C10.912,36.316 10.926,36.348 10.805,36.243C10.669,36.124 10.492,35.948 10.165,35.621L7.337,38.45ZM5.55,36.663L7.337,38.45L10.165,35.621L8.379,33.834L5.55,36.663ZM4.053,34.77C4.244,35.211 4.506,35.554 4.747,35.828C4.974,36.088 5.261,36.374 5.55,36.663L8.379,33.834C8.052,33.508 7.876,33.331 7.757,33.195C7.652,33.074 7.684,33.087 7.723,33.179L4.053,34.77ZM3.913,31.962C3.619,32.884 3.668,33.882 4.053,34.77L7.723,33.179L7.723,33.179L3.913,31.962ZM5.214,29.929C4.955,30.246 4.698,30.559 4.498,30.84C4.286,31.137 4.06,31.504 3.913,31.962L7.723,33.179C7.693,33.275 7.662,33.291 7.756,33.161C7.86,33.014 8.017,32.82 8.31,32.462L5.214,29.929ZM6.423,28.452C6.451,28.246 6.531,28.222 6.305,28.548C6.09,28.857 5.758,29.265 5.214,29.929L8.31,32.462C8.811,31.85 9.263,31.3 9.589,30.83C9.904,30.377 10.284,29.754 10.387,28.986L6.423,28.452ZM6.423,28.452L6.423,28.452L10.387,28.986C10.579,27.561 9.992,26.144 8.849,25.272L6.423,28.452ZM4.524,28.262C5.378,28.348 5.901,28.402 6.272,28.468C6.662,28.539 6.589,28.579 6.423,28.452L8.849,25.272C8.233,24.802 7.524,24.629 6.98,24.532C6.418,24.43 5.709,24.361 4.922,24.282L4.524,28.262ZM2.166,27.745C2.594,27.966 3.014,28.065 3.374,28.125C3.714,28.182 4.117,28.222 4.524,28.262L4.922,24.282C4.462,24.236 4.214,24.21 4.036,24.18C3.878,24.154 3.911,24.144 4,24.19L2.166,27.745ZM0.28,25.661C0.636,26.561 1.306,27.301 2.166,27.745L4,24.19L4,24.19L0.28,25.661ZM0,23.264C0,23.673 -0.001,24.077 0.022,24.422C0.046,24.786 0.103,25.213 0.28,25.661L4,24.19C4.037,24.283 4.024,24.315 4.013,24.155C4.001,23.975 4,23.726 4,23.264L0,23.264ZM0,20.737L0,23.264L4,23.264L4,20.737L0,20.737ZM0.28,18.339C0.103,18.786 0.046,19.214 0.022,19.578C-0.001,19.923 0,20.327 0,20.737L4,20.737C4,20.274 4.001,20.025 4.013,19.845C4.024,19.685 4.037,19.717 4,19.81L0.28,18.339ZM2.166,16.255C1.306,16.699 0.636,17.439 0.28,18.339L4,19.81L4,19.81L2.166,16.255ZM4.524,15.738C4.117,15.778 3.714,15.818 3.374,15.875C3.014,15.935 2.594,16.034 2.166,16.255L4,19.81C3.911,19.856 3.878,19.846 4.036,19.82C4.214,19.79 4.462,19.764 4.922,19.718L4.524,15.738ZM4.723,15.728L4.723,15.728L4.723,19.728L4.723,19.728L4.723,15.728ZM4.723,15.728L4.723,15.728L4.723,19.728L4.723,19.728L4.723,15.728ZM6.424,15.548C6.589,15.421 6.663,15.461 6.273,15.532C5.901,15.598 5.379,15.652 4.524,15.738L4.922,19.718C5.71,19.639 6.419,19.57 6.981,19.468C7.525,19.371 8.234,19.198 8.85,18.728L6.424,15.548ZM6.424,15.548L6.424,15.548L8.85,18.728C9.992,17.856 10.579,16.439 10.388,15.015L6.424,15.548ZM5.215,14.07C5.759,14.735 6.09,15.143 6.305,15.452C6.532,15.778 6.451,15.754 6.424,15.548L10.388,15.015C10.285,14.247 9.905,13.623 9.59,13.17C9.264,12.7 8.812,12.15 8.31,11.537L5.215,14.07ZM3.913,12.036C4.059,12.495 4.286,12.862 4.498,13.159C4.698,13.441 4.955,13.753 5.215,14.07L8.31,11.537C8.018,11.179 7.861,10.986 7.756,10.838C7.662,10.708 7.693,10.724 7.724,10.82L3.913,12.036ZM4.053,9.23C3.668,10.118 3.619,11.115 3.913,12.036L7.724,10.82L7.724,10.82L4.053,9.23ZM5.55,7.336C5.261,7.625 4.974,7.911 4.747,8.171C4.506,8.446 4.244,8.788 4.053,9.23L7.724,10.82C7.684,10.912 7.652,10.925 7.757,10.804C7.876,10.668 8.052,10.491 8.379,10.164L5.55,7.336ZM7.337,5.549L5.55,7.336L8.379,10.164L10.166,8.378L7.337,5.549ZM7.337,5.549L7.337,5.549L10.166,8.378L10.166,8.378L7.337,5.549ZM9.23,4.052C8.789,4.244 8.446,4.506 8.172,4.746C7.912,4.973 7.627,5.26 7.337,5.549L10.166,8.378C10.493,8.051 10.669,7.875 10.805,7.756C10.926,7.651 10.913,7.683 10.821,7.723L9.23,4.052ZM12.038,3.912C11.116,3.618 10.118,3.668 9.23,4.052L10.821,7.723L10.821,7.723L12.038,3.912ZM14.071,5.214C13.754,4.954 13.441,4.697 13.16,4.497C12.863,4.285 12.496,4.059 12.038,3.912L10.821,7.723C10.725,7.692 10.709,7.662 10.839,7.755C10.986,7.86 11.18,8.017 11.538,8.309L14.071,5.214ZM15.548,6.422C15.755,6.45 15.778,6.53 15.452,6.304C15.143,6.089 14.735,5.757 14.071,5.214L11.538,8.309C12.15,8.81 12.7,9.262 13.17,9.589C13.623,9.904 14.246,10.283 15.014,10.386L15.548,6.422ZM15.548,6.422L15.548,6.422L15.014,10.386C16.439,10.578 17.857,9.991 18.728,8.848L15.548,6.422ZM15.738,4.524C15.652,5.378 15.599,5.9 15.532,6.271C15.462,6.661 15.421,6.588 15.548,6.422L18.728,8.848C19.198,8.232 19.371,7.523 19.469,6.98C19.57,6.417 19.639,5.709 19.718,4.922L15.738,4.524ZM16.255,2.167C16.034,2.594 15.935,3.014 15.875,3.374C15.818,3.714 15.778,4.116 15.738,4.524L19.718,4.922C19.764,4.462 19.79,4.214 19.82,4.036C19.846,3.878 19.856,3.911 19.81,4L16.255,2.167ZM18.34,0.28C17.439,0.636 16.698,1.306 16.255,2.167L19.81,4L19.81,4L18.34,0.28ZM20.736,0C20.327,0 19.922,-0.001 19.578,0.022C19.214,0.046 18.787,0.103 18.34,0.28L19.81,4C19.717,4.037 19.685,4.024 19.845,4.013C20.025,4.001 20.274,4 20.736,4L20.736,0ZM23.264,0L20.736,0L20.736,4L23.264,4L23.264,0ZM25.661,0.28C25.213,0.103 24.786,0.046 24.422,0.022C24.077,-0.001 23.673,0 23.264,0L23.264,4C23.726,4 23.975,4.001 24.155,4.013C24.315,4.024 24.283,4.037 24.19,4L25.661,0.28ZM27.745,2.166C27.301,1.306 26.561,0.636 25.661,0.28L24.19,4L24.19,4L27.745,2.166ZM28,22C28,25.314 25.314,28 22,28L22,32C27.523,32 32,27.523 32,22L28,22ZM22,16C25.314,16 28,18.686 28,22L32,22C32,16.477 27.523,12 22,12L22,16ZM16,22C16,18.686 18.686,16 22,16L22,12C16.477,12 12,16.477 12,22L16,22ZM22,28C18.686,28 16,25.314 16,22L12,22C12,27.523 16.477,32 22,32L22,28Z" fill="#33363F"/>
</svg>
