<svg width="34" height="40" viewBox="0 0 34 40" fill="none" xmlns="http://www.w3.org/2000/svg" xmlns:xlink="http://www.w3.org/1999/xlink">
<path d="M0.747,12.472C0.083,13.914 0.083,15.554 0.083,18.836L0.083,29.083C0.083,33.64 0.083,35.919 1.499,37.334C2.83,38.665 4.924,38.745 8.958,38.75L8.958,26.667C8.958,24.227 10.936,22.25 13.375,22.25L20.625,22.25C23.064,22.25 25.042,24.227 25.042,26.667L25.042,38.75C29.076,38.745 31.17,38.665 32.501,37.334C33.917,35.919 33.917,33.64 33.917,29.083L33.917,18.836C33.917,15.554 33.917,13.914 33.253,12.472C32.59,11.029 31.345,9.962 28.853,7.826L26.437,5.755C21.934,1.895 19.682,-0.035 17,-0.035C14.318,-0.035 12.067,1.895 7.564,5.755L7.564,5.755L5.147,7.826C2.656,9.962 1.41,11.029 0.747,12.472ZM21.042,38.75L21.042,26.667C21.042,26.437 20.855,26.25 20.625,26.25L13.375,26.25C13.145,26.25 12.958,26.437 12.958,26.667L12.958,38.75L21.042,38.75Z" clip-rule="evenodd" fill-rule="evenodd" fill="#3F217B"/>
</svg>
