<svg width="28" height="32" viewBox="0 0 28 32" fill="none" xmlns="http://www.w3.org/2000/svg" xmlns:xlink="http://www.w3.org/1999/xlink">
<path d="M14.796,31.608C17.762,30.07 28,24.033 28,14C28,6.268 21.732,0 14,0C6.268,0 0,6.268 0,14C0,24.033 10.238,30.07 13.204,31.608C13.71,31.87 14.29,31.87 14.796,31.608ZM14,20C17.314,20 20,17.314 20,14C20,10.686 17.314,8 14,8C10.686,8 8,10.686 8,14C8,17.314 10.686,20 14,20Z" clip-rule="evenodd" fill-rule="evenodd" fill="#7E869E" fill-opacity="0.25" stroke="#222222" stroke-width="1.2" stroke-miterlimit="3.999327"/>
</svg>
