<svg width="36" height="34" viewBox="0 0 36 34" fill="none" xmlns="http://www.w3.org/2000/svg" xmlns:xlink="http://www.w3.org/1999/xlink">
<path d="M28.408,13.592L32,10C33.09,8.909 33.636,8.364 33.927,7.776C34.482,6.657 34.482,5.343 33.927,4.224C33.636,3.636 33.09,3.09 32,2C30.909,0.909 30.364,0.364 29.776,0.073C28.657,-0.482 27.343,-0.482 26.224,0.073C25.636,0.364 25.09,0.909 24,2L20.363,5.637C22.29,8.938 25.063,11.69 28.408,13.592ZM17.454,8.546L3.713,22.287C2.863,23.137 2.438,23.562 2.158,24.085C1.879,24.607 1.761,25.196 1.525,26.375L0.294,32.529C0.161,33.194 0.095,33.527 0.284,33.716C0.473,33.905 0.806,33.839 1.471,33.706L7.625,32.475C8.804,32.239 9.393,32.121 9.915,31.842C10.438,31.562 10.863,31.137 11.713,30.287L25.491,16.508C22.248,14.477 19.505,11.752 17.454,8.546Z" clip-rule="evenodd" fill-rule="evenodd" fill="#000000" fill-opacity="0.71"/>
</svg>
