<svg width="64" height="64" viewBox="0 0 64 64" fill="none" xmlns="http://www.w3.org/2000/svg" xmlns:xlink="http://www.w3.org/1999/xlink">
<path d="M38.694,3.935L38.694,3.935L38.911,6.105C39.237,9.372 39.401,11.006 40.506,11.464C41.612,11.922 42.883,10.882 45.424,8.803L47.112,7.422C48.443,6.333 49.109,5.788 49.879,5.826C50.648,5.865 51.256,6.473 52.473,7.69L56.31,11.527C57.527,12.743 58.135,13.352 58.173,14.121C58.212,14.891 57.667,15.557 56.578,16.888L55.197,18.576C53.117,21.117 52.078,22.388 52.536,23.494C52.994,24.599 54.627,24.763 57.894,25.089L60.065,25.306C61.777,25.478 62.633,25.563 63.15,26.134C63.667,26.706 63.667,27.566 63.667,29.286L63.667,34.713C63.667,36.434 63.667,37.294 63.15,37.865C62.633,38.437 61.777,38.522 60.065,38.693L60.065,38.693L57.896,38.91C54.629,39.237 52.995,39.4 52.537,40.506C52.079,41.612 53.119,42.882 55.198,45.423L56.578,47.11C57.667,48.442 58.212,49.107 58.174,49.877C58.135,50.647 57.527,51.255 56.31,52.472L52.473,56.309C51.257,57.525 50.648,58.134 49.879,58.172C49.109,58.21 48.443,57.666 47.112,56.576L45.424,55.195C42.883,53.116 41.612,52.076 40.506,52.534C39.401,52.992 39.237,54.626 38.911,57.893L38.694,60.065L38.694,60.065C38.522,61.776 38.437,62.632 37.865,63.149C37.294,63.667 36.434,63.667 34.713,63.667L29.287,63.667C27.566,63.667 26.706,63.667 26.135,63.149C25.563,62.632 25.478,61.776 25.307,60.065L25.09,57.894C24.763,54.627 24.599,52.994 23.494,52.536C22.388,52.078 21.118,53.117 18.576,55.196L16.888,56.578C15.557,57.667 14.891,58.212 14.121,58.173C13.352,58.135 12.743,57.527 11.527,56.31L7.69,52.473C6.473,51.256 5.865,50.648 5.826,49.879C5.788,49.109 6.333,48.443 7.422,47.112L8.803,45.424C10.882,42.882 11.922,41.612 11.464,40.506C11.006,39.4 9.373,39.237 6.105,38.91L3.935,38.693L3.935,38.693C2.223,38.522 1.368,38.437 0.85,37.865C0.333,37.294 0.333,36.434 0.333,34.713L0.333,29.286C0.333,27.566 0.333,26.706 0.85,26.134C1.368,25.563 2.223,25.478 3.935,25.306L6.107,25.089C9.374,24.762 11.007,24.599 11.465,23.494C11.923,22.388 10.884,21.117 8.804,18.576L7.422,16.887C6.333,15.555 5.788,14.89 5.827,14.12C5.865,13.35 6.473,12.742 7.69,11.525L11.527,7.688C12.743,6.472 13.352,5.863 14.121,5.825C14.891,5.787 15.557,6.331 16.888,7.421L18.576,8.802C21.118,10.881 22.388,11.921 23.494,11.463C24.6,11.005 24.763,9.371 25.09,6.104L25.307,3.935C25.478,2.223 25.563,1.367 26.135,0.85C26.706,0.333 27.566,0.333 29.287,0.333L34.713,0.333C36.434,0.333 37.294,0.333 37.865,0.85C38.437,1.367 38.522,2.223 38.694,3.935ZM32,44.667C38.996,44.667 44.667,38.995 44.667,32C44.667,25.004 38.996,19.333 32,19.333C25.004,19.333 19.333,25.004 19.333,32C19.333,38.995 25.004,44.667 32,44.667Z" clip-rule="evenodd" fill-rule="evenodd" fill="#222222"/>
</svg>
