<svg width="100" height="38" viewBox="0 0 100 38" fill="none" xmlns="http://www.w3.org/2000/svg" xmlns:xlink="http://www.w3.org/1999/xlink">
<path d="M13.798,23.717C10.17,23.752 7.259,26.727 7.293,30.363C7.296,30.644 7.322,30.919 7.359,31.189C7.796,34.432 10.576,36.917 13.922,36.884C17.362,36.853 20.152,34.177 20.405,30.799C20.419,30.614 20.43,30.427 20.428,30.237C20.394,26.602 17.425,23.683 13.798,23.717Z" fill="#FFFFFF"/>
<path d="M77.353,23.717C73.726,23.752 70.813,26.727 70.849,30.363C70.851,30.644 70.877,30.919 70.914,31.189C71.351,34.432 74.131,36.917 77.478,36.884C80.917,36.853 83.707,34.177 83.96,30.799C83.974,30.614 83.985,30.427 83.983,30.237C83.948,26.602 80.98,23.683 77.353,23.717Z" fill="#FFFFFF"/>
<path d="M95.707,25.183L97.973,26.18C98.453,26.391 98.764,26.868 98.765,27.397L98.765,28.396C98.765,29.127 98.174,29.721 97.444,29.721L93.866,29.721L93.866,30.992C93.866,31.263 93.646,31.484 93.375,31.484L92.265,31.484C91.994,31.484 91.774,31.263 91.774,30.992L91.774,29.805L85.469,30.849C85.469,30.849 85.495,30.436 85.492,30.227C85.452,25.804 81.83,22.207 77.34,22.207C72.887,22.25 69.3,25.917 69.341,30.381C69.342,30.461 69.359,30.607 69.359,30.607L21.909,30.917C21.909,30.917 21.938,30.46 21.936,30.229C21.895,25.806 18.273,22.209 13.783,22.209C9.33,22.252 5.743,25.919 5.785,30.383C5.786,30.496 5.797,30.606 5.808,30.716C5.813,30.767 5.819,30.819 5.823,30.871C3.293,30.801 1.723,30.704 1.527,30.561C0.193,29.593 -0.106,28.04 -0.106,28.04L-0.106,25.369C-0.106,24.96 0.16,24.599 0.55,24.483L1.526,24.188C1.526,24.188 1.495,19.393 1.484,17.795C1.473,15.992 2.678,14.643 5.239,14.155C8.177,13.595 17.012,12.03 17.012,12.03C17.012,12.03 24.749,5.243 27.749,2.811C28.46,2.235 29.311,1.85 30.212,1.692C40.629,-0.126 83.898,-0.38 91.335,1.821C91.817,1.964 92.218,2.304 92.442,2.757C97.682,13.402 95.707,25.183 95.707,25.183ZM36.863,13.034C37.172,13.034 37.427,12.793 37.446,12.484L37.986,3.918C37.995,3.754 37.937,3.593 37.823,3.475C37.71,3.357 37.552,3.291 37.389,3.294L31.09,3.426C30.445,3.439 29.826,3.689 29.35,4.127L25.354,7.815C25.354,7.815 25.826,8.25 25.919,9.395C25.978,10.124 25.966,13.034 25.966,13.034L36.863,13.034Z" clip-rule="evenodd" fill-rule="evenodd" fill="#FFFFFF"/>
</svg>
