<svg width="22" height="20" viewBox="0 0 22 20" fill="none" xmlns="http://www.w3.org/2000/svg" xmlns:xlink="http://www.w3.org/1999/xlink">
<path d="M11.73,1.529L13.49,5.049C13.73,5.539 14.37,6.009 14.91,6.099L18.1,6.629C20.14,6.969 20.62,8.449 19.15,9.909L16.67,12.389C16.25,12.809 16.02,13.619 16.15,14.199L16.86,17.269C17.42,19.699 16.13,20.639 13.98,19.369L10.99,17.599C10.45,17.279 9.56,17.279 9.01,17.599L6.02,19.369C3.88,20.639 2.58,19.689 3.14,17.269L3.85,14.199C3.98,13.619 3.75,12.809 3.33,12.389L0.85,9.909C-0.61,8.449 -0.14,6.969 1.9,6.629L5.09,6.099C5.62,6.009 6.26,5.539 6.5,5.049L8.26,1.529C9.22,-0.381 10.78,-0.381 11.73,1.529Z" fill="#FBBE21"/>
</svg>
