<svg width="36" height="38" viewBox="0 0 36 38" fill="none" xmlns="http://www.w3.org/2000/svg" xmlns:xlink="http://www.w3.org/1999/xlink">
<path d="M18.408,32.306L19.608,30.706L18.408,32.306ZM34.125,27.296L28.828,22L26,24.828L31.296,30.125L34.125,27.296ZM14,7.172L8.704,1.875L5.875,4.704L11.172,10L14,7.172ZM11.958,14.871L14,12.828L11.172,10L9.129,12.042L11.958,14.871ZM23.172,22L21.129,24.042L23.958,26.871L26,24.828L23.172,22ZM2.094,18.792L4.457,21.943L7.657,19.543L5.294,16.392L2.094,18.792ZM14.057,31.543L17.208,33.906L19.608,30.706L16.457,28.343L14.057,31.543ZM4.457,21.943C7.186,25.582 10.418,28.814 14.057,31.543L16.457,28.343C13.122,25.841 10.159,22.878 7.657,19.543L4.457,21.943ZM22.207,23.867C17.847,21.688 14.312,18.153 12.133,13.793L8.555,15.582C11.122,20.716 15.284,24.878 20.418,27.445L22.207,23.867ZM21.129,24.042C21.413,23.758 21.848,23.688 22.207,23.867L20.418,27.445C21.599,28.035 23.024,27.804 23.958,26.871L21.129,24.042ZM9.129,12.042C8.196,12.976 7.965,14.401 8.555,15.582L12.133,13.793C12.312,14.152 12.242,14.587 11.958,14.871L9.129,12.042ZM11.172,10L11.172,10L14,12.828C15.562,11.266 15.562,8.734 14,7.172L11.172,10ZM28.828,22C27.266,20.438 24.734,20.438 23.172,22L26,24.828L26,24.828L28.828,22ZM34.125,32.704C35.618,31.211 35.618,28.789 34.125,27.296L31.296,30.125C31.227,30.056 31.227,29.944 31.296,29.875L34.125,32.704ZM31.296,29.875C28.15,33.022 23.168,33.376 19.608,30.706L17.208,33.906C22.36,37.77 29.57,37.258 34.125,32.704L31.296,29.875ZM3.296,1.875C-1.258,6.43 -1.77,13.64 2.094,18.792L5.294,16.392C2.624,12.832 2.978,7.85 6.125,4.704L3.296,1.875ZM6.125,4.704C6.056,4.773 5.944,4.773 5.875,4.704L8.704,1.875C7.21,0.382 4.789,0.382 3.296,1.875L6.125,4.704Z" fill="#33363F"/>
</svg>
