<svg width="34" height="34" viewBox="0 0 34 34" fill="none" xmlns="http://www.w3.org/2000/svg" xmlns:xlink="http://www.w3.org/1999/xlink">
<path d="M18.883,1.85L21.817,7.717C22.217,8.533 23.283,9.317 24.183,9.467L29.5,10.35C32.9,10.917 33.7,13.383 31.25,15.817L27.117,19.95C26.417,20.65 26.033,22 26.25,22.967L27.433,28.083C28.367,32.133 26.217,33.7 22.633,31.583L17.65,28.633C16.75,28.1 15.267,28.1 14.35,28.633L9.367,31.583C5.8,33.7 3.633,32.117 4.567,28.083L5.75,22.967C5.967,22 5.583,20.65 4.883,19.95L0.75,15.817C-1.683,13.383 -0.9,10.917 2.5,10.35L7.817,9.467C8.7,9.317 9.767,8.533 10.167,7.717L13.1,1.85C14.7,-1.333 17.3,-1.333 18.883,1.85Z" fill="#979797"/>
</svg>
