<svg width="50" height="44" viewBox="0 0 50 44" fill="none" xmlns="http://www.w3.org/2000/svg" xmlns:xlink="http://www.w3.org/1999/xlink">
<path d="M43.244,23.612L44.613,25.069L43.244,23.612ZM23.631,39.464L25,38.006L23.631,39.464ZM26.369,39.464L25,38.006L26.369,39.464ZM25,40.378L25,38.378L25,40.378ZM25,38.006L8.125,22.154L5.386,25.069L22.261,40.921L25,38.006ZM7.01,7.964L7.758,7.001L4.598,4.549L3.85,5.512L7.01,7.964ZM42.242,7L42.989,7.964L46.15,5.512L45.402,4.549L42.242,7ZM41.875,22.154L25,38.006L27.739,40.921L44.613,25.069L41.875,22.154ZM42.989,7.964C46.333,12.274 45.85,18.419 41.875,22.154L44.613,25.069C50.093,19.922 50.758,11.452 46.15,5.512L42.989,7.964ZM27.981,8.536C30.682,2.877 38.398,2.046 42.242,7L45.402,4.549C39.733,-2.758 28.354,-1.533 24.371,6.813L27.981,8.536ZM22.019,8.536C23.215,11.043 26.784,11.043 27.981,8.536L24.371,6.813C24.624,6.284 25.376,6.284 25.629,6.813L22.019,8.536ZM7.758,7.001C11.602,2.046 19.318,2.877 22.019,8.536L25.629,6.813C21.645,-1.533 10.267,-2.758 4.598,4.549L7.758,7.001ZM8.125,22.154C4.15,18.419 3.667,12.274 7.01,7.964L3.85,5.512C-0.758,11.452 -0.093,19.922 5.386,25.069L8.125,22.154ZM22.261,40.921C22.546,41.189 22.899,41.526 23.242,41.773C23.631,42.053 24.219,42.378 25,42.378L25,38.378C25.172,38.378 25.327,38.414 25.446,38.461C25.551,38.503 25.6,38.542 25.578,38.526C25.556,38.51 25.502,38.468 25.396,38.373C25.29,38.278 25.167,38.163 25,38.006L22.261,40.921ZM25,38.006C24.832,38.163 24.71,38.278 24.604,38.373C24.498,38.468 24.444,38.51 24.421,38.526C24.4,38.542 24.449,38.503 24.554,38.461C24.673,38.414 24.828,38.378 25,38.378L25,42.378C25.781,42.378 26.369,42.053 26.758,41.773C27.101,41.526 27.454,41.189 27.739,40.921L25,38.006Z" fill="#33363F"/>
</svg>
