<svg width="96" height="96" viewBox="0 0 96 96" fill="none" xmlns="http://www.w3.org/2000/svg" xmlns:xlink="http://www.w3.org/1999/xlink">
<path d="M47,-0.5C20.827,-0.5 -0.5,20.827 -0.5,47C-0.5,73.173 20.827,94.5 47,94.5C73.173,94.5 94.5,73.173 94.5,47C94.5,20.827 73.173,-0.5 47,-0.5ZM66,50.562L50.562,50.562L50.562,66C50.562,67.948 48.947,69.562 47,69.562C45.053,69.562 43.438,67.948 43.438,66L43.438,50.562L28,50.562C26.052,50.562 24.438,48.947 24.438,47C24.438,45.053 26.052,43.438 28,43.438L43.438,43.438L43.438,28C43.438,26.052 45.053,24.438 47,24.438C48.947,24.438 50.562,26.052 50.562,28L50.562,43.438L66,43.438C67.948,43.438 69.562,45.053 69.562,47C69.562,48.947 67.948,50.562 66,50.562Z" fill="url(#pf_0_i_1_2675;1_548)"/>
<path d="M47,-0.5C20.827,-0.5 -0.5,20.827 -0.5,47C-0.5,73.173 20.827,94.5 47,94.5C73.173,94.5 94.5,73.173 94.5,47C94.5,20.827 73.173,-0.5 47,-0.5ZM66,50.562L50.562,50.562L50.562,66C50.562,67.948 48.947,69.562 47,69.562C45.053,69.562 43.438,67.948 43.438,66L43.438,50.562L28,50.562C26.052,50.562 24.438,48.947 24.438,47C24.438,45.053 26.052,43.438 28,43.438L43.438,43.438L43.438,28C43.438,26.052 45.053,24.438 47,24.438C48.947,24.438 50.562,26.052 50.562,28L50.562,43.438L66,43.438C67.948,43.438 69.562,45.053 69.562,47C69.562,48.947 67.948,50.562 66,50.562Z" fill="#000000" fill-opacity="0.19"/>
<defs>
<linearGradient id="pf_0_i_1_2675;1_548" x1="47" y1="-0.5" x2="47" y2="94.5" gradientUnits="userSpaceOnUse">
<stop stop-color="#1855AD"/>
<stop offset="1" stop-color="#AC52A3"/>
</linearGradient>
</defs>
</svg>
