<svg width="22" height="20" viewBox="0 0 22 20" fill="none" xmlns="http://www.w3.org/2000/svg" xmlns:xlink="http://www.w3.org/1999/xlink">
<path d="M11.73,1.51L13.49,5.03C13.73,5.52 14.37,5.99 14.91,6.08L18.1,6.61C20.14,6.95 20.62,8.43 19.15,9.89L16.67,12.37C16.25,12.79 16.02,13.6 16.15,14.18L16.86,17.25C17.42,19.68 16.13,20.62 13.98,19.35L10.99,17.58C10.45,17.26 9.56,17.26 9.01,17.58L6.02,19.35C3.88,20.62 2.58,19.67 3.14,17.25L3.85,14.18C3.98,13.6 3.75,12.79 3.33,12.37L0.85,9.89C-0.61,8.43 -0.14,6.95 1.9,6.61L5.09,6.08C5.62,5.99 6.26,5.52 6.5,5.03L8.26,1.51C9.22,-0.4 10.78,-0.4 11.73,1.51Z" fill="#FBBE21"/>
</svg>
