<svg width="30" height="24" viewBox="0 0 30 24" fill="none" xmlns="http://www.w3.org/2000/svg" xmlns:xlink="http://www.w3.org/1999/xlink">
<path d="M14.739,5.219C19.127,5.219 23.347,6.922 26.527,9.975C26.767,10.211 27.15,10.208 27.385,9.969L29.674,7.635C29.794,7.514 29.86,7.349 29.859,7.178C29.858,7.007 29.79,6.843 29.669,6.723C21.322,-1.356 8.155,-1.356 -0.192,6.723C-0.313,6.843 -0.382,7.007 -0.383,7.178C-0.384,7.349 -0.317,7.514 -0.198,7.635L2.092,9.969C2.327,10.209 2.71,10.212 2.95,9.975C6.13,6.922 10.351,5.219 14.739,5.219ZM14.739,12.808C17.15,12.808 19.474,13.713 21.262,15.347C21.503,15.579 21.884,15.574 22.12,15.336L24.406,13.003C24.527,12.88 24.593,12.714 24.592,12.542C24.59,12.369 24.52,12.204 24.397,12.085C18.955,6.972 10.527,6.972 5.085,12.085C4.962,12.204 4.892,12.369 4.891,12.542C4.889,12.714 4.956,12.88 5.077,13.003L7.363,15.336C7.598,15.574 7.979,15.579 8.221,15.347C10.007,13.714 12.33,12.809 14.739,12.808ZM19.321,17.915C19.325,18.088 19.257,18.255 19.135,18.376L15.18,22.407C15.064,22.526 14.906,22.593 14.741,22.593C14.576,22.593 14.418,22.526 14.302,22.407L10.346,18.376C10.224,18.255 10.157,18.088 10.16,17.915C10.164,17.742 10.238,17.578 10.365,17.462C12.891,15.304 16.591,15.304 19.116,17.462C19.243,17.578 19.318,17.742 19.321,17.915Z" clip-rule="evenodd" fill-rule="evenodd" fill="#000000"/>
</svg>
