<svg width="34" height="26" viewBox="0 0 34 26" fill="none" xmlns="http://www.w3.org/2000/svg" xmlns:xlink="http://www.w3.org/1999/xlink">
<path d="M16.942,5.692C21.875,5.692 26.62,7.633 30.195,11.114C30.464,11.383 30.894,11.38 31.16,11.107L33.733,8.447C33.867,8.308 33.942,8.121 33.941,7.926C33.94,7.731 33.863,7.544 33.727,7.407C24.343,-1.802 9.539,-1.802 0.155,7.407C0.02,7.544 -0.058,7.73 -0.059,7.926C-0.06,8.121 0.015,8.308 0.149,8.447L2.723,11.107C2.988,11.38 3.419,11.383 3.688,11.114C7.263,7.633 12.009,5.692 16.942,5.692ZM16.942,14.345C19.652,14.345 22.266,15.377 24.275,17.24C24.547,17.504 24.975,17.499 25.24,17.227L27.811,14.567C27.946,14.428 28.021,14.238 28.019,14.042C28.017,13.845 27.938,13.657 27.8,13.521C21.682,7.693 12.207,7.693 6.089,13.521C5.951,13.657 5.872,13.845 5.87,14.042C5.868,14.239 5.944,14.428 6.079,14.567L8.649,17.227C8.914,17.499 9.342,17.504 9.614,17.24C11.622,15.378 14.233,14.346 16.942,14.345ZM22.091,20.168C22.095,20.365 22.02,20.555 21.882,20.694L17.436,25.289C17.305,25.424 17.127,25.5 16.942,25.5C16.757,25.5 16.579,25.424 16.449,25.289L12.001,20.694C11.864,20.555 11.788,20.365 11.792,20.168C11.796,19.971 11.88,19.784 12.023,19.652C14.863,17.192 19.022,17.192 21.861,19.652C22.004,19.784 22.087,19.971 22.091,20.168Z" clip-rule="evenodd" fill-rule="evenodd" fill="#000000"/>
</svg>
